<svg width="200" height="148" viewBox="0 0 200 148" fill="none" xmlns="http://www.w3.org/2000/svg">
<g clip-path="url(#clip0_14_115)">
<g opacity="0.1">
<path opacity="0.1" d="M160.142 104.854C160.142 104.854 145.865 103 156.513 126.109C156.513 126.109 166.216 121.951 166.603 112.571C166.681 110.746 166.088 108.955 164.934 107.538C163.781 106.121 162.148 105.176 160.345 104.883L160.142 104.854Z" fill="white"/>
<path opacity="0.1" d="M160.352 104.819C160.352 104.819 163.584 117.705 156.524 126.111" stroke="#535461" stroke-miterlimit="10"/>
<path opacity="0.1" d="M156.331 127.302C156.331 127.302 161.471 114.632 171.071 109.932C175.113 107.986 178.415 104.781 180.48 100.798C181.444 98.9009 182.233 96.9195 182.837 94.8784" stroke="#535461" stroke-width="2" stroke-miterlimit="10"/>
<path opacity="0.1" d="M188.869 91.8833C187.868 93.1411 182.689 94.9824 182.689 94.9824C182.689 94.9824 183.312 89.5134 184.313 88.2647C184.542 87.9387 184.834 87.6629 185.173 87.4542C185.512 87.2455 185.89 87.1084 186.284 87.0513C186.678 86.9942 187.079 87.0183 187.463 87.1221C187.847 87.2259 188.206 87.4072 188.518 87.6549C188.829 87.9026 189.087 88.2115 189.274 88.5624C189.462 88.9133 189.576 89.299 189.609 89.6956C189.642 90.0922 189.594 90.4913 189.467 90.8685C189.34 91.2457 189.137 91.5929 188.871 91.8888L188.869 91.8833Z" fill="white"/>
<path opacity="0.1" d="M187.091 101.846C185.567 102.358 180.222 101.084 180.222 101.084C180.222 101.084 183.713 96.84 185.237 96.3277C185.607 96.1764 186.003 96.1025 186.402 96.1104C186.801 96.1184 187.194 96.2081 187.556 96.374C187.919 96.5399 188.244 96.7785 188.511 97.0749C188.778 97.3714 188.981 97.7195 189.108 98.0977C189.236 98.4759 189.284 98.8761 189.25 99.2736C189.216 99.6712 189.101 100.058 188.912 100.409C188.723 100.76 188.464 101.069 188.151 101.316C187.838 101.563 187.477 101.744 187.091 101.846Z" fill="white"/>
<path opacity="0.1" d="M177.455 113.625C175.882 113.299 171.91 109.5 171.91 109.5C171.91 109.5 177.065 107.599 178.64 107.925C179.353 108.124 179.963 108.586 180.348 109.217C180.733 109.849 180.863 110.604 180.713 111.328C180.562 112.053 180.142 112.693 179.537 113.119C178.932 113.545 178.188 113.725 177.455 113.624V113.625Z" fill="white"/>
<path opacity="0.1" d="M168.158 120.896C166.552 120.839 161.994 117.768 161.994 117.768C161.994 117.768 166.756 115.019 168.362 115.077C169.098 115.152 169.779 115.504 170.265 116.062C170.752 116.619 171.008 117.341 170.982 118.081C170.956 118.821 170.65 119.523 170.125 120.045C169.601 120.567 168.898 120.871 168.158 120.894V120.896Z" fill="white"/>
<path opacity="0.1" d="M175.246 97.5163C175.452 99.1114 178.932 103.363 178.932 103.363C178.932 103.363 181.223 98.3676 181.019 96.7725C180.994 96.3742 180.888 95.9853 180.706 95.6298C180.525 95.2744 180.272 94.9599 179.965 94.7059C179.657 94.4519 179.3 94.2637 178.917 94.1531C178.533 94.0424 178.131 94.0117 177.735 94.0627C177.34 94.1137 176.958 94.2453 176.616 94.4495C176.273 94.6537 175.975 94.9261 175.742 95.2499C175.509 95.5736 175.344 95.9418 175.259 96.3316C175.173 96.7214 175.169 97.1247 175.246 97.5163Z" fill="white"/>
<path opacity="0.1" d="M164.479 106.165C165.152 107.623 169.746 110.64 169.746 110.64C169.746 110.64 170.438 105.187 169.766 103.729C169.622 103.357 169.404 103.018 169.125 102.733C168.845 102.449 168.51 102.225 168.141 102.075C167.771 101.925 167.375 101.852 166.976 101.861C166.577 101.87 166.185 101.961 165.823 102.128C165.46 102.295 165.136 102.535 164.87 102.832C164.604 103.129 164.402 103.478 164.276 103.856C164.15 104.235 164.103 104.635 164.138 105.032C164.173 105.43 164.289 105.816 164.479 106.166V106.165Z" fill="white"/>
<path opacity="0.1" d="M155.167 115.999C155.583 117.552 159.603 121.3 159.603 121.3C159.603 121.3 161.207 116.045 160.789 114.491C160.712 114.1 160.555 113.728 160.327 113.4C160.1 113.071 159.808 112.793 159.469 112.582C159.13 112.371 158.751 112.232 158.356 112.173C157.961 112.115 157.558 112.138 157.173 112.241C156.787 112.345 156.427 112.526 156.114 112.775C155.801 113.023 155.543 113.333 155.355 113.685C155.167 114.038 155.053 114.425 155.021 114.823C154.989 115.221 155.039 115.621 155.167 115.999Z" fill="white"/>
<path opacity="0.25" d="M188.869 91.8833C187.868 93.1411 182.689 94.9824 182.689 94.9824C182.689 94.9824 183.312 89.5134 184.313 88.2647C184.542 87.9387 184.834 87.6629 185.173 87.4542C185.512 87.2455 185.89 87.1084 186.284 87.0513C186.678 86.9942 187.079 87.0183 187.463 87.1221C187.847 87.2259 188.206 87.4072 188.518 87.6549C188.829 87.9026 189.087 88.2115 189.274 88.5624C189.462 88.9133 189.576 89.299 189.609 89.6956C189.642 90.0922 189.594 90.4913 189.467 90.8685C189.34 91.2457 189.137 91.5929 188.871 91.8888L188.869 91.8833Z" fill="black"/>
<path opacity="0.25" d="M187.091 101.846C185.567 102.358 180.222 101.084 180.222 101.084C180.222 101.084 183.713 96.84 185.237 96.3277C185.607 96.1764 186.003 96.1025 186.402 96.1104C186.801 96.1184 187.194 96.2081 187.556 96.374C187.919 96.5399 188.244 96.7785 188.511 97.0749C188.778 97.3714 188.981 97.7195 189.108 98.0977C189.236 98.4759 189.284 98.8761 189.25 99.2736C189.216 99.6712 189.101 100.058 188.912 100.409C188.723 100.76 188.464 101.069 188.151 101.316C187.838 101.563 187.477 101.744 187.091 101.846Z" fill="black"/>
<path opacity="0.25" d="M177.455 113.625C175.882 113.299 171.91 109.5 171.91 109.5C171.91 109.5 177.065 107.599 178.64 107.925C179.353 108.124 179.963 108.586 180.348 109.217C180.733 109.849 180.863 110.604 180.713 111.328C180.562 112.053 180.142 112.693 179.537 113.119C178.932 113.545 178.188 113.725 177.455 113.624V113.625Z" fill="black"/>
<path opacity="0.25" d="M168.158 120.896C166.552 120.839 161.994 117.768 161.994 117.768C161.994 117.768 166.756 115.019 168.362 115.077C169.098 115.152 169.779 115.504 170.265 116.062C170.752 116.619 171.008 117.341 170.982 118.081C170.956 118.821 170.65 119.523 170.125 120.045C169.601 120.567 168.898 120.871 168.158 120.894V120.896Z" fill="black"/>
<path opacity="0.25" d="M175.246 97.5163C175.452 99.1114 178.932 103.363 178.932 103.363C178.932 103.363 181.223 98.3676 181.019 96.7725C180.994 96.3742 180.888 95.9853 180.706 95.6298C180.525 95.2744 180.272 94.9599 179.965 94.7059C179.657 94.4519 179.3 94.2637 178.917 94.1531C178.533 94.0424 178.131 94.0117 177.735 94.0627C177.34 94.1137 176.958 94.2453 176.616 94.4495C176.273 94.6537 175.975 94.9261 175.742 95.2499C175.509 95.5736 175.344 95.9418 175.259 96.3316C175.173 96.7214 175.169 97.1247 175.246 97.5163Z" fill="black"/>
<path opacity="0.25" d="M164.479 106.165C165.152 107.623 169.746 110.64 169.746 110.64C169.746 110.64 170.438 105.187 169.766 103.729C169.622 103.357 169.404 103.018 169.125 102.733C168.845 102.449 168.51 102.225 168.141 102.075C167.771 101.925 167.375 101.852 166.976 101.861C166.577 101.87 166.185 101.961 165.823 102.128C165.46 102.295 165.136 102.535 164.87 102.832C164.604 103.129 164.402 103.478 164.276 103.856C164.15 104.235 164.103 104.635 164.138 105.032C164.173 105.43 164.289 105.816 164.479 106.166V106.165Z" fill="black"/>
<path opacity="0.25" d="M155.167 115.999C155.583 117.552 159.603 121.3 159.603 121.3C159.603 121.3 161.207 116.045 160.789 114.491C160.712 114.1 160.555 113.728 160.327 113.4C160.1 113.071 159.808 112.793 159.469 112.582C159.13 112.371 158.751 112.232 158.356 112.173C157.961 112.115 157.558 112.138 157.173 112.241C156.787 112.345 156.427 112.526 156.114 112.775C155.801 113.023 155.543 113.333 155.355 113.685C155.167 114.038 155.053 114.425 155.021 114.823C154.989 115.221 155.039 115.621 155.167 115.999Z" fill="black"/>
<path opacity="0.1" d="M163.178 133.066C163.178 133.066 168.318 120.396 177.918 115.696C181.959 113.749 185.258 110.543 187.321 106.56C188.286 104.663 189.075 102.682 189.678 100.641" stroke="#535461" stroke-width="2" stroke-miterlimit="10"/>
<path opacity="0.1" d="M195.707 97.6439C194.706 98.9018 189.527 100.743 189.527 100.743C189.527 100.743 190.15 95.274 191.151 94.0252C191.648 93.473 192.337 93.1311 193.077 93.0694C193.818 93.0077 194.554 93.2308 195.135 93.6932C195.716 94.1555 196.1 94.8223 196.206 95.5575C196.313 96.2927 196.135 97.0409 195.709 97.6494L195.707 97.6439Z" fill="white"/>
<path opacity="0.1" d="M193.933 107.607C192.409 108.119 187.064 106.845 187.064 106.845C187.064 106.845 190.555 102.601 192.079 102.088C192.795 101.898 193.557 101.988 194.209 102.339C194.862 102.69 195.356 103.276 195.592 103.979C195.828 104.681 195.788 105.447 195.48 106.121C195.172 106.794 194.619 107.326 193.933 107.607Z" fill="white"/>
<path opacity="0.1" d="M184.297 119.394C182.724 119.067 178.751 115.268 178.751 115.268C178.751 115.268 183.907 113.367 185.482 113.693C186.195 113.892 186.805 114.354 187.19 114.986C187.575 115.618 187.705 116.372 187.554 117.097C187.404 117.821 186.983 118.461 186.379 118.887C185.774 119.313 185.03 119.494 184.297 119.392V119.394Z" fill="white"/>
<path opacity="0.1" d="M174.998 126.655C173.392 126.598 168.834 123.527 168.834 123.527C168.834 123.527 173.596 120.781 175.202 120.838C175.938 120.913 176.619 121.265 177.105 121.823C177.591 122.38 177.848 123.102 177.822 123.842C177.796 124.582 177.49 125.284 176.965 125.806C176.441 126.328 175.738 126.632 174.998 126.655Z" fill="white"/>
<path opacity="0.1" d="M182.086 103.284C182.292 104.879 185.772 109.131 185.772 109.131C185.772 109.131 188.063 104.136 187.859 102.54C187.834 102.142 187.727 101.753 187.546 101.398C187.365 101.042 187.112 100.728 186.804 100.474C186.497 100.22 186.14 100.032 185.757 99.921C185.373 99.8104 184.971 99.7796 184.575 99.8306C184.179 99.8816 183.798 100.013 183.455 100.217C183.113 100.422 182.815 100.694 182.582 101.018C182.348 101.342 182.184 101.71 182.099 102.1C182.013 102.489 182.009 102.893 182.086 103.284Z" fill="white"/>
<path opacity="0.1" d="M171.321 111.919C171.993 113.377 176.587 116.394 176.587 116.394C176.587 116.394 177.28 110.942 176.607 109.484C176.254 108.832 175.667 108.339 174.964 108.105C174.26 107.871 173.494 107.914 172.821 108.224C172.148 108.534 171.619 109.089 171.34 109.776C171.061 110.462 171.054 111.229 171.321 111.921V111.919Z" fill="white"/>
<path opacity="0.1" d="M162.009 121.764C162.425 123.317 166.444 127.065 166.444 127.065C166.444 127.065 168.049 121.809 167.631 120.256C167.393 119.556 166.896 118.972 166.244 118.623C165.591 118.275 164.83 118.188 164.115 118.379C163.4 118.571 162.785 119.027 162.394 119.656C162.003 120.284 161.865 121.038 162.009 121.764Z" fill="white"/>
</g>
<path opacity="0.1" d="M2.16016 78.3873C5.32486 91.9146 12.0243 103.608 22.6123 109.276C44.6157 121.055 94.2393 114.98 131.275 108C149.988 104.485 166.974 94.776 179.499 80.4346L2.16016 78.3873Z" fill="white"/>
<path opacity="0.1" d="M196.372 14.7141H176.051C175.586 14.7141 175.139 14.5291 174.809 14.1996C174.48 13.8702 174.295 13.4234 174.295 12.9576C174.295 12.4917 174.48 12.0449 174.809 11.7155C175.139 11.3861 175.586 11.201 176.051 11.201H179.564C179.099 11.201 178.652 11.016 178.322 10.6865C177.993 10.3571 177.808 9.91035 177.808 9.44448C177.808 8.97862 177.993 8.53184 178.322 8.20242C178.652 7.873 179.099 7.68794 179.564 7.68794H177.056C176.59 7.68794 176.143 7.50288 175.814 7.17346C175.485 6.84405 175.3 6.39726 175.3 5.9314C175.3 5.46553 175.485 5.01875 175.814 4.68933C176.143 4.35992 176.59 4.17485 177.056 4.17485H187.662C185.309 3.081 182.558 2.30254 179.389 1.89417C150.469 -1.82128 140.144 0.636243 136.502 3.17033C132.008 6.28781 126.995 8.58125 121.637 9.68604C103.792 13.3632 70.4221 17.7933 40.1769 8.26404C25.1446 3.52401 13.9715 11.531 7.27563 24.9052H199.9C199.648 21.0184 198.895 17.4305 197.514 14.2875C197.197 14.5621 196.792 14.7135 196.372 14.7141Z" fill="white"/>
<path opacity="0.1" d="M0.435714 50.1531C-0.344431 58.0207 -0.0790049 65.957 1.22507 73.7548L179.637 80.2797C184.604 74.5663 188.774 68.2067 192.034 61.3742L0.435714 50.1531ZM70.9999 66.9894H67.487C67.9529 66.9894 68.3996 67.1744 68.729 67.5038C69.0584 67.8333 69.2435 68.28 69.2435 68.7459C69.2435 69.2118 69.0584 69.6586 68.729 69.988C68.3996 70.3174 67.9529 70.5025 67.487 70.5025H47.1662C46.7003 70.5025 46.2536 70.3174 45.9242 69.988C45.5948 69.6586 45.4097 69.2118 45.4097 68.7459C45.4097 68.28 45.5948 67.8333 45.9242 67.5038C46.2536 67.1744 46.7003 66.9894 47.1662 66.9894H50.6791C50.2132 66.9894 49.7665 66.8043 49.4371 66.4749C49.1077 66.1455 48.9226 65.6987 48.9226 65.2328C48.9226 64.7669 49.1077 64.3202 49.4371 63.9907C49.7665 63.6613 50.2132 63.4763 50.6791 63.4763H48.1707C47.7048 63.4763 47.258 63.2912 46.9287 62.9618C46.5993 62.6324 46.4142 62.1856 46.4142 61.7197C46.4142 61.2539 46.5993 60.8071 46.9287 60.4777C47.258 60.1482 47.7048 59.9632 48.1707 59.9632H68.4915C68.9573 59.9632 69.4041 60.1482 69.7335 60.4777C70.0629 60.8071 70.2479 61.2539 70.2479 61.7197C70.2479 62.1856 70.0629 62.6324 69.7335 62.9618C69.4041 63.2912 68.9573 63.4763 68.4915 63.4763H70.9999C71.4658 63.4763 71.9125 63.6613 72.2419 63.9907C72.5713 64.3202 72.7564 64.7669 72.7564 65.2328C72.7564 65.6987 72.5713 66.1455 72.2419 66.4749C71.9125 66.8043 71.4658 66.9894 70.9999 66.9894Z" fill="white"/>
<path opacity="0.1" d="M199.909 25.0273L5.1244 29.7674C2.75634 35.8583 1.19404 42.7441 0.464844 49.8815H196.496C197.776 45.6888 198.723 41.4015 199.327 37.0597C199.911 32.8648 200.144 28.8066 199.909 25.0273ZM40.0091 40.5546H36.4962C36.962 40.5546 37.4088 40.7396 37.7382 41.0691C38.0676 41.3985 38.2526 41.8453 38.2526 42.3111C38.2526 42.777 38.0676 43.2238 37.7382 43.5532C37.4088 43.8826 36.962 44.0677 36.4962 44.0677H16.1754C15.7095 44.0677 15.2628 43.8826 14.9334 43.5532C14.604 43.2238 14.4189 42.777 14.4189 42.3111C14.4189 41.8453 14.604 41.3985 14.9334 41.0691C15.2628 40.7396 15.7095 40.5546 16.1754 40.5546H19.6882C19.2224 40.5546 18.7757 40.3695 18.4463 40.0401C18.1169 39.7107 17.9318 39.2639 17.9318 38.798C17.9318 38.3322 18.1169 37.8854 18.4463 37.556C18.7757 37.2265 19.2224 37.0415 19.6882 37.0415H17.1798C16.714 37.0415 16.2672 36.8564 15.9378 36.527C15.6084 36.1976 15.4234 35.7508 15.4234 35.2849C15.4234 34.8191 15.6084 34.3723 15.9378 34.0429C16.2672 33.7135 16.714 33.5284 17.1798 33.5284H37.5007C37.9665 33.5284 38.4133 33.7135 38.7427 34.0429C39.0721 34.3723 39.2571 34.8191 39.2571 35.2849C39.2571 35.7508 39.0721 36.1976 38.7427 36.527C38.4133 36.8564 37.9665 37.0415 37.5007 37.0415H40.0091C40.4749 37.0415 40.9217 37.2265 41.2511 37.556C41.5805 37.8854 41.7655 38.3322 41.7655 38.798C41.7655 39.2639 41.5805 39.7107 41.2511 40.0401C40.9217 40.3695 40.4749 40.5546 40.0091 40.5546Z" fill="white"/>
<path d="M171.12 147.907C171.12 147.907 162.997 103.351 147.507 96.1202C134.381 89.9892 120.188 85.8563 116.152 84.7351C115.549 83.7642 114.852 82.855 114.072 82.0205C108.555 76.2614 105.241 76.3689 104.705 76.44C104.451 75.2979 104.268 74.1411 104.158 72.9762C104.142 72.7938 104.125 72.6243 104.111 72.4438L104.158 72.4201C104.125 72.0755 104.096 71.72 104.071 71.3536C106.323 70.1517 108.396 68.6416 110.231 66.867C110.254 66.9454 110.274 67.0238 110.3 67.104C114.275 63.7434 118.168 60.2917 121.98 56.7488C123.073 55.7261 124.222 54.6158 124.594 53.1738C124.713 52.6775 124.759 52.1665 124.731 51.657C124.78 50.5631 124.521 49.4456 124.477 48.3371C124.477 48.1548 124.497 47.9853 124.521 47.8121C124.776 45.9981 126.038 44.5086 127.073 42.9864C129.66 39.1394 131.01 34.594 130.943 29.9586C130.972 27.7375 130.664 25.5248 130.032 23.3955C129.224 20.6936 127.543 17.8551 124.745 17.2644C123.662 17.0365 122.538 17.1787 121.433 17.1076C116.859 16.8159 113.435 13.0968 109.788 10.3713C105.335 7.06099 100.07 5.01737 94.551 4.45723C92.8283 4.27493 91.049 4.26216 89.4102 4.80909C85.7296 6.0342 83.4946 9.81711 79.9489 11.3722C77.3274 12.528 74.2976 12.3403 71.5631 13.2081C67.4924 14.5024 64.0378 18.6773 63.9467 22.967C63.9467 23.1256 63.9467 23.2843 63.9467 23.4429C63.9467 23.4702 63.9467 23.4976 63.9467 23.5231C63.9011 25.6907 64.6759 27.8985 64.7379 30.1172C64.7379 30.3177 64.7409 30.5189 64.747 30.7206C64.7269 33.1162 64.4407 35.519 63.5675 37.7705C63.0972 38.9829 62.492 40.3866 62.5904 41.599C62.5357 42.341 62.6797 43.0374 63.1956 43.6044L64.0761 42.8278C63.7808 44.4261 63.6325 46.0481 63.6331 47.6735C63.6331 55.8665 67.3593 63.2026 73.2366 68.1395C73.2707 68.6852 73.3035 69.2698 73.3351 69.8933C73.4736 72.5951 73.583 75.9842 73.552 79.6778L64.9548 87.5809L42.8529 97.6079C42.8529 97.6079 22.6396 101.878 26.9929 130.276L29.0711 147.909H47.5252L47.4833 148.002H74.8737L74.8901 147.909H140.058L140.046 148.002H142.598V147.909L171.12 147.907ZM104.867 76.8921C105.426 78.0478 105.866 79.2573 106.18 80.5019C105.535 79.3042 105.058 78.0232 104.763 76.6952L104.791 76.7445L104.867 76.8921ZM73.5447 80.5383C73.5447 80.8859 73.5386 81.2366 73.5265 81.5902L73.4827 81.6522C73.4798 81.2769 73.5005 80.9019 73.5447 80.5292V80.5383Z" fill="url(#paint0_linear_14_115)"/>
<path d="M112.077 85.0105L108.431 119.831L88.9254 126.03C88.9254 126.03 63.5858 121.29 70.1486 107.617C74.8173 97.8906 74.6878 80.5093 74.2248 71.2845C74.0425 67.5399 73.7946 65.1389 73.7946 65.1389C73.7946 65.1389 106.973 36.1518 104.238 62.2219C103.71 67.2701 103.679 71.2171 103.972 74.3017C105.203 87.1435 112.077 85.0105 112.077 85.0105Z" fill="#FDC2CC"/>
<path opacity="0.03" d="M112.077 85.0105L108.431 119.831L88.9254 126.03C88.9254 126.03 63.5858 121.29 70.1486 107.617C74.8173 97.8906 74.6878 80.5093 74.2248 71.2845C74.0425 67.5399 73.7946 65.1389 73.7946 65.1389C73.7946 65.1389 106.973 36.1518 104.238 62.2219C103.71 67.2701 103.679 71.2171 103.972 74.3017C105.203 87.1435 112.077 85.0105 112.077 85.0105Z" fill="black"/>
<path opacity="0.1" d="M104.238 61.675C103.71 66.7231 103.679 70.6701 103.972 73.7548C99.2883 76.3121 93.9404 77.3924 88.6312 76.8539C83.3219 76.3154 78.2998 74.1833 74.2247 70.7376C74.0424 66.993 73.7945 64.5919 73.7945 64.5919C73.7945 64.5919 106.973 35.6049 104.238 61.675Z" fill="black"/>
<path d="M91.2952 75.8969C105.894 75.8969 117.729 64.0617 117.729 49.4622C117.729 34.8627 105.894 23.0274 91.2952 23.0274C76.6965 23.0274 64.8618 34.8627 64.8618 49.4622C64.8618 64.0617 76.6965 75.8969 91.2952 75.8969Z" fill="#FDC2CC"/>
<path opacity="0.03" d="M91.2952 75.8969C105.894 75.8969 117.729 64.0617 117.729 49.4622C117.729 34.8627 105.894 23.0274 91.2952 23.0274C76.6965 23.0274 64.8618 34.8627 64.8618 49.4622C64.8618 64.0617 76.6965 75.8969 91.2952 75.8969Z" fill="black"/>
<path opacity="0.1" d="M47.7258 120.196C47.7258 120.196 56.2938 137.698 56.7496 147.998L47.7258 120.196Z" fill="black"/>
<path opacity="0.1" d="M141.063 130.225L138.602 147.999H141.063V130.225Z" fill="black"/>
<path opacity="0.1" d="M49.6399 147.998L63.2211 117.097C63.2211 117.097 67.0494 109.805 67.9609 102.512C68.8724 95.2198 73.7945 83.7344 73.7945 83.7344C73.7945 83.7344 86.0085 68.2381 91.6598 70.4258C97.311 72.6135 86.7377 80.8174 86.7377 80.8174C86.7377 80.8174 102.233 86.8336 91.6598 104.7C81.0864 122.566 80.9041 119.285 80.9041 119.285L75.7086 147.998H49.6399Z" fill="black"/>
<path d="M49.2753 147.998L62.8566 117.097C62.8566 117.097 66.6849 109.804 67.5964 102.512C68.1761 97.876 70.3764 91.5445 71.9022 87.5464C72.8982 84.9326 74.3637 82.523 76.2264 80.4364C80.175 76.0172 87.3466 68.8908 91.2952 70.4222C96.9464 72.6099 86.3731 80.8138 86.3731 80.8138C86.3731 80.8138 101.869 86.83 91.2952 104.696C80.7219 122.562 80.5396 119.281 80.5396 119.281L75.344 147.994L49.2753 147.998Z" fill="#FDC2CC"/>
<path opacity="0.15" d="M99.4075 35.1509C99.7095 35.1509 99.9544 34.906 99.9544 34.604C99.9544 34.3019 99.7095 34.0571 99.4075 34.0571C99.1055 34.0571 98.8606 34.3019 98.8606 34.604C98.8606 34.906 99.1055 35.1509 99.4075 35.1509Z" fill="white"/>
<path opacity="0.15" d="M96.8553 36.2447C97.1574 36.2447 97.4022 35.9999 97.4022 35.6978C97.4022 35.3958 97.1574 35.1509 96.8553 35.1509C96.5533 35.1509 96.3084 35.3958 96.3084 35.6978C96.3084 35.9999 96.5533 36.2447 96.8553 36.2447Z" fill="white"/>
<path opacity="0.1" d="M72.5166 16.1485C75.1544 15.2953 78.0821 15.4794 80.6124 14.3455C84.0342 12.8104 86.1908 9.09499 89.742 7.89175C91.3243 7.35577 93.0416 7.37582 94.7023 7.54719C100.043 8.10302 105.129 10.1126 109.407 13.3574C112.927 16.0355 116.23 19.6871 120.643 19.9733C121.71 20.0426 122.795 19.9022 123.839 20.1265C126.544 20.7062 128.165 23.4937 128.943 26.1427C129.844 29.282 130.055 32.5789 129.562 35.8075C129.07 39.036 127.885 42.1198 126.089 44.8475C125.09 46.3425 123.872 47.8064 123.626 49.5876C123.385 51.3341 124.129 53.1444 123.695 54.8545C123.331 56.271 122.237 57.3612 121.172 58.3657C117.496 61.843 113.739 65.2309 109.901 68.5294C107.906 62.1924 110.832 55.3686 110.376 48.7417C110.194 46.1602 109.283 43.3417 107.006 42.1239C104.875 40.9862 102.151 41.5769 99.9944 40.4831C97.5881 39.2707 96.6 36.3994 94.7807 34.4122C91.6816 31.0213 86.302 30.5837 81.9687 32.1151C77.6355 33.6465 74.0934 36.7968 70.6662 39.8687L64.4371 45.4565C63.2211 44.0855 64.1436 41.9817 64.8017 40.268C65.7824 37.6992 65.9976 34.93 65.9319 32.2026C65.8791 30.0149 65.1243 27.8546 65.1681 25.7252C65.2556 21.5248 68.588 17.4192 72.5166 16.1485Z" fill="black"/>
<path d="M72.5166 15.6016C75.1544 14.7484 78.0821 14.9325 80.6124 13.7985C84.0342 12.2635 86.1908 8.54805 89.742 7.34482C91.3243 6.80883 93.0416 6.82888 94.7023 7.00025C100.043 7.55608 105.129 9.56566 109.407 12.8104C112.927 15.4885 116.23 19.1402 120.643 19.4264C121.71 19.4957 122.795 19.3553 123.839 19.5796C126.544 20.1593 128.165 22.9468 128.943 25.5957C129.844 28.7351 130.055 32.032 129.562 35.2605C129.07 38.4891 127.885 41.5729 126.089 44.3006C125.09 45.7955 123.872 47.2595 123.626 49.0406C123.385 50.7872 124.129 52.5975 123.695 54.3075C123.331 55.7241 122.237 56.8143 121.172 57.8188C117.496 61.296 113.739 64.6839 109.901 67.9825C107.906 61.6455 110.832 54.8216 110.376 48.1947C110.194 45.6132 109.283 42.7947 107.006 41.5769C104.875 40.4393 102.151 41.03 99.9944 39.9361C97.5881 38.7238 96.6 35.8524 94.7807 33.8653C91.6816 30.4743 86.302 30.0368 81.9687 31.5682C77.6355 33.0996 74.0934 36.2499 70.6662 39.3218L64.4371 44.9095C63.2211 43.5386 64.1436 41.4347 64.8017 39.721C65.7824 37.1523 65.9976 34.383 65.9319 31.6557C65.8791 29.468 65.1243 27.3076 65.1681 25.1783C65.2556 20.9779 68.588 16.8723 72.5166 15.6016Z" fill="#865A61"/>
</g>
<defs>
<linearGradient id="paint0_linear_14_115" x1="98.7475" y1="147.998" x2="98.7475" y2="4.33508" gradientUnits="userSpaceOnUse">
<stop stop-color="#808080" stop-opacity="0.25"/>
<stop offset="0.54" stop-color="#808080" stop-opacity="0.12"/>
<stop offset="1" stop-color="#808080" stop-opacity="0.1"/>
</linearGradient>
<clipPath id="clip0_14_115">
<rect width="200" height="148" fill="white"/>
</clipPath>
</defs>
</svg>
