<svg width="335" height="193" viewBox="0 0 335 193" fill="none" xmlns="http://www.w3.org/2000/svg">
<g clip-path="url(#clip0_12_668)">
<path opacity="0.5" d="M83.132 126.398C62.8775 119.403 39.7189 113.481 20.7953 123.534C18.3969 124.808 16.0337 126.412 14.7414 128.799C11.3282 135.078 16.7535 143.221 14.1094 149.859C11.4652 156.496 1.5135 159.838 2.32818 166.928C2.54238 168.781 3.54668 170.459 4.73006 171.905C12.1429 180.957 25.7325 181.873 37.2187 179.627C48.705 177.381 59.9383 172.723 71.6317 173.309C82.8686 173.888 93.2066 179.276 103.502 183.811C120.86 191.477 141.132 196.977 158.475 189.272C166.422 185.741 172.992 179.729 180.598 175.531C190.848 169.926 202.63 167.765 214.203 169.367C221.929 170.455 229.303 173.193 236.863 175.082C254.035 179.367 271.957 179.227 289.652 179.058C292.946 179.027 296.292 178.988 299.449 178.048C304.123 176.644 307.979 173.411 311.69 170.248C316.568 166.096 321.705 161.533 323.279 155.324C325.136 147.953 321.291 140.119 315.588 135.11C309.886 130.101 302.596 127.363 295.481 124.724C293.725 124.078 291.85 123.422 290.052 123.91C288.873 124.232 287.879 125.019 286.997 125.865C281.948 130.722 277.681 138.939 270.795 137.62C268.337 137.149 266.325 135.44 264.38 133.86C253.993 125.436 240.02 118.932 227.484 123.587C218.315 126.991 211.844 135.735 202.552 138.82C195.943 141.017 188.762 140.066 181.81 140.494C171.696 141.112 161.853 144.685 151.726 144.467C125.902 143.913 104.387 119.231 78.6688 121.582C76.6532 121.765 74.455 122.228 73.219 123.822" fill="white"/>
<path d="M50.566 102.92C50.566 102.92 29.1071 115.868 68.6785 135.812C68.6785 135.812 77.3976 119.631 67.7585 106.437C65.8879 103.866 63.1391 102.07 60.0326 101.39C56.9262 100.709 53.6779 101.191 50.9031 102.744L50.566 102.92Z" fill="white"/>
<path d="M50.8224 102.649C50.8224 102.649 69.1947 116.689 68.682 135.801" stroke="#535461" stroke-miterlimit="10"/>
<path d="M322.06 92.1335C326.407 108.023 307.863 153.291 307.863 153.291C307.863 153.291 268.843 123.762 264.492 107.872C263.354 104.062 262.989 100.064 263.419 96.111C263.849 92.1583 265.065 88.3314 266.996 84.8552C268.927 81.3789 271.533 78.3235 274.662 75.8684C277.791 73.4133 281.379 71.6081 285.215 70.5588C289.052 69.5096 293.06 69.2375 297.004 69.7585C300.947 70.2795 304.746 71.5832 308.179 73.5928C311.611 75.6024 314.607 78.2775 316.99 81.4609C319.373 84.6443 321.096 88.2717 322.056 92.1299L322.06 92.1335Z" fill="white"/>
<path opacity="0.1" d="M322.06 92.1335C326.407 108.023 307.863 153.291 307.863 153.291C307.863 153.291 268.843 123.762 264.492 107.872C263.354 104.062 262.989 100.064 263.419 96.111C263.849 92.1583 265.065 88.3314 266.996 84.8552C268.927 81.3789 271.533 78.3235 274.662 75.8684C277.791 73.4133 281.379 71.6081 285.215 70.5588C289.052 69.5096 293.06 69.2375 297.004 69.7585C300.947 70.2795 304.746 71.5832 308.179 73.5928C311.611 75.6024 314.607 78.2775 316.99 81.4609C319.373 84.6443 321.096 88.2717 322.056 92.1299L322.06 92.1335Z" fill="black"/>
<path d="M285.561 71.323C285.561 71.323 309.85 107.974 308.035 153.379" stroke="#535461" stroke-miterlimit="10"/>
<path d="M328.258 121.175C328.258 121.175 306.234 109.199 309.022 153.407C309.022 153.407 327.394 152.751 333.915 137.77C335.19 134.857 335.351 131.577 334.368 128.552C333.385 125.528 331.326 122.969 328.581 121.361L328.258 121.175Z" fill="white"/>
<path d="M328.62 121.252C328.62 121.252 325.775 144.201 309.022 153.407" stroke="#535461" stroke-miterlimit="10"/>
<path d="M5.81507 116.247C5.81507 116.247 -15.6544 129.192 23.9205 149.125C23.9205 149.125 32.6397 132.944 23.0005 119.75C21.1299 117.179 18.3811 115.384 15.2746 114.703C12.1682 114.023 8.91992 114.505 6.14516 116.058L5.81507 116.247Z" fill="white"/>
<path d="M6.06088 115.977C6.06088 115.977 24.4332 130.017 23.9205 149.129" stroke="#535461" stroke-miterlimit="10"/>
<path d="M273.699 133.099H251.138C251.657 132.055 251.926 130.905 251.924 129.74V27.0514C251.924 25.0491 251.128 23.1287 249.712 21.7128C248.295 20.2969 246.374 19.5015 244.371 19.5015H69.7319C67.7287 19.5015 65.8075 20.2969 64.3909 21.7128C62.9744 23.1287 62.1786 25.0491 62.1786 27.0514V129.743C62.1768 130.909 62.4461 132.059 62.9652 133.102H39.6065C39.3432 133.102 39.0826 133.154 38.8394 133.255C38.5963 133.356 38.3756 133.504 38.1899 133.691C38.0043 133.877 37.8573 134.099 37.7575 134.342C37.6577 134.586 37.6071 134.847 37.6085 135.11V136.721C37.6085 139.683 38.7857 142.524 40.8812 144.618C42.9766 146.713 45.8187 147.89 48.7821 147.89H264.524C267.487 147.89 270.329 146.713 272.425 144.618C274.52 142.524 275.697 139.683 275.697 136.721V135.11C275.699 134.846 275.649 134.585 275.549 134.341C275.45 134.097 275.303 133.875 275.117 133.689C274.931 133.502 274.71 133.353 274.467 133.252C274.224 133.151 273.963 133.099 273.699 133.099ZM134.681 139.487L132.736 137.293H180.767L178.624 139.49L134.681 139.487Z" fill="url(#paint0_linear_12_668)"/>
<path d="M241.6 20.9546H72.485C67.974 20.9546 64.3172 24.6098 64.3172 29.1188V127.914C64.3172 132.423 67.974 136.079 72.485 136.079H241.6C246.111 136.079 249.768 132.423 249.768 127.914V29.1188C249.768 24.6098 246.111 20.9546 241.6 20.9546Z" fill="#535461"/>
<path d="M245.473 37.7358H68.222V131.786H245.473V37.7358Z" fill="white"/>
<path d="M156.85 31.1019C157.713 31.1019 158.412 30.4026 158.412 29.54C158.412 28.6773 157.713 27.978 156.85 27.978C155.987 27.978 155.287 28.6773 155.287 29.54C155.287 30.4026 155.987 31.1019 156.85 31.1019Z" fill="white"/>
<path d="M184.215 131.979L178.126 138.223H135.194L129.691 131.979H42.2577C41.7399 131.979 41.2433 132.185 40.8772 132.551C40.511 132.917 40.3053 133.413 40.3053 133.931V135.503C40.3053 138.398 41.4559 141.175 43.504 143.222C45.552 145.269 48.3298 146.419 51.2262 146.419H262.08C263.514 146.419 264.934 146.137 266.259 145.588C267.584 145.04 268.788 144.235 269.802 143.222C270.816 142.208 271.62 141.005 272.169 139.68C272.718 138.356 273 136.937 273 135.503V133.931C273 133.413 272.795 132.917 272.429 132.551C272.062 132.185 271.566 131.979 271.048 131.979H184.215Z" fill="#535461"/>
<path d="M90.8678 43.5906V123.59H223.217" stroke="#535461" stroke-width="2" stroke-miterlimit="10"/>
<path opacity="0.5" d="M116.242 99.3958H102.579V120.47H116.242V99.3958Z" fill="white"/>
<path opacity="0.7" d="M139.668 80.6628H126.004V120.47H139.668V80.6628Z" fill="white"/>
<path opacity="0.5" d="M163.093 91.979H149.43V120.466H163.093V91.979Z" fill="white"/>
<path opacity="0.8" d="M186.518 74.4187H172.855V120.47H186.518V74.4187Z" fill="white"/>
<path d="M209.944 58.0271H196.281V120.466H209.944V58.0271Z" fill="white"/>
<path d="M109.216 86.5177L133.031 65.0541L156.456 85.3453L179.492 60.7614L202.917 51.0037" stroke="#535461" stroke-width="2" stroke-miterlimit="10"/>
<path d="M109.216 89.2484C110.724 89.2484 111.948 88.0258 111.948 86.5176C111.948 85.0095 110.724 83.7869 109.216 83.7869C107.707 83.7869 106.484 85.0095 106.484 86.5176C106.484 88.0258 107.707 89.2484 109.216 89.2484Z" fill="white"/>
<path d="M156.066 87.6864C157.575 87.6864 158.798 86.4638 158.798 84.9556C158.798 83.4475 157.575 82.2249 156.066 82.2249C154.558 82.2249 153.334 83.4475 153.334 84.9556C153.334 86.4638 154.558 87.6864 156.066 87.6864Z" fill="white"/>
<path d="M179.882 63.4921C181.391 63.4921 182.614 62.2694 182.614 60.7613C182.614 59.2531 181.391 58.0305 179.882 58.0305C178.373 58.0305 177.15 59.2531 177.15 60.7613C177.15 62.2694 178.373 63.4921 179.882 63.4921Z" fill="white"/>
<path d="M133.031 67.3917C134.54 67.3917 135.763 66.1691 135.763 64.6609C135.763 63.1528 134.54 61.9302 133.031 61.9302C131.522 61.9302 130.299 63.1528 130.299 64.6609C130.299 66.1691 131.522 67.3917 133.031 67.3917Z" fill="white"/>
<path d="M202.917 53.7342C204.426 53.7342 205.649 52.5116 205.649 51.0035C205.649 49.4953 204.426 48.2727 202.917 48.2727C201.408 48.2727 200.185 49.4953 200.185 51.0035C200.185 52.5116 201.408 53.7342 202.917 53.7342Z" fill="white"/>
<path d="M304.559 135.398C303.119 134.924 300.984 134.376 299.291 134.569C297.679 133.983 293.89 132.463 291.302 130.175C291.377 127.925 291.32 125.672 291.13 123.429C289.807 108.381 292.784 98.462 292.784 98.462C292.784 98.462 295.123 90.8945 294.867 84.6151C295.018 84.8994 295.102 85.0679 295.102 85.0679C295.306 79.652 297.153 74.0466 298.536 70.5541C298.589 70.5391 298.641 70.5203 298.691 70.498L300.236 66.8336C300.359 66.6198 300.457 66.3925 300.527 66.1561L300.777 65.577L300.703 65.5454C300.727 65.4506 300.752 65.3488 300.777 65.247C301.763 61.0737 302.532 51.1755 302.532 51.1755C305.18 40.7579 298.894 34.3276 298.894 34.3276L288.226 25.1525C288.279 25.2719 288.315 25.3984 288.332 25.5281L288.244 25.4508C288.093 25.0191 287.928 24.5031 287.766 23.9135C288.143 23.6434 288.495 23.3416 288.82 23.0114C290.033 21.8664 290.867 20.3785 291.211 18.7468C291.418 17.4707 291.471 16.1745 291.369 14.8858L291.194 10.4597C291.186 9.59346 291.097 8.72983 290.93 7.87985C290.126 4.36987 286.527 1.91288 282.913 1.75142C281.764 1.74472 280.615 1.80567 279.472 1.93394C278.538 2.01066 277.6 2.03059 276.663 1.99361C276.556 1.99925 276.451 1.97099 276.361 1.91288C276.28 1.8318 276.233 1.72229 276.231 1.60751C276.213 1.40208 276.236 1.19505 276.3 0.998962C276.364 0.802874 276.467 0.621812 276.603 0.46676C276.745 0.342846 276.909 0.248556 277.088 0.189474L276.831 0.249143C276.958 0.149527 277.1 0.0723564 277.253 0.0209961C276.316 0.185607 275.415 0.51225 274.591 0.986242C274.364 1.1354 274.155 1.31095 273.97 1.50923C273.479 1.93988 273.159 2.53309 273.071 3.17998C272.631 2.80869 272.302 2.32266 272.123 1.77599C272.067 1.55245 272.067 1.31859 272.123 1.09505C272.059 1.17227 271.998 1.25183 271.94 1.33373C271.94 1.30916 271.94 1.28459 271.94 1.26002C271.261 2.09379 270.781 3.07074 270.535 4.11715C270.441 4.00383 270.37 3.87287 270.326 3.73186C270.283 3.59086 270.268 3.44263 270.282 3.29581C270.23 3.46078 270.181 3.62575 270.135 3.79072C270.119 3.68131 270.119 3.57018 270.135 3.46078C269.722 4.72619 269.535 6.05465 269.584 7.38494C269.584 8.71172 270.174 10.7791 271.596 11.2459C271.67 11.2705 271.743 11.288 271.821 11.3056C271.021 12.5475 270.542 13.9684 270.426 15.4408C270.311 16.9133 270.563 18.3913 271.16 19.7424C271.757 21.0935 272.68 22.2755 273.846 23.1823C275.013 24.0892 276.386 24.6925 277.843 24.9384C277.866 25.0998 277.888 25.2695 277.91 25.4473H277.966C278.004 25.7983 278.036 26.1844 278.057 26.5775C277.698 26.929 277.305 27.2441 276.884 27.5182C275.69 28.2237 274.359 28.6642 272.979 28.8099C271.332 28.9391 269.732 29.4177 268.284 30.2139C266.581 31.1651 264.703 32.5515 264.113 34.2363C263.129 37.0443 257.715 41.4142 254.084 41.9583L252.792 41.8846L252.697 41.8565V41.8811L252.381 41.8635H252.363H252.279V41.8811L251.952 41.8635C251.952 41.8635 251.921 42.0144 251.875 42.2812C250.049 41.6529 246.169 39.912 241.119 35.3314C235.501 30.2314 227.898 31.2353 224.966 31.8776C224.866 31.8996 224.776 31.9515 224.706 32.0263C224.637 32.1012 224.592 32.1954 224.577 32.2965C224.563 32.3976 224.579 32.5007 224.625 32.592C224.671 32.6834 224.743 32.7586 224.833 32.8078C226.016 33.4571 227.849 34.4013 228.695 34.5066C228.695 34.5066 226.94 36.3423 228.808 37.3146C229.032 37.4229 229.282 37.4674 229.529 37.4433C229.777 37.4191 230.013 37.3272 230.212 37.1777C231.118 36.5143 233.636 38.0166 237.285 38.7993C237.285 38.7993 247.58 49.4486 252.693 51.0842C252.811 51.3168 252.941 51.5429 253.083 51.7617L253.399 51.7371V51.7617H253.532L253.571 52.1127C253.571 52.1127 261.521 51.695 264.106 48.8098C264.289 48.646 264.457 48.4663 264.608 48.2728L261.844 83.0216H261.869L261.844 83.3515H263.877C264.051 87.6252 263.867 91.906 263.326 96.1489V118.802C263.326 118.802 263.221 120.796 267.364 123.716C271.709 126.74 275.895 129.984 279.908 133.436L280.41 133.871C279.648 140.803 278.053 153.723 276.723 154.204L277.544 154.348C276.14 156.128 272.151 161.017 270.936 161.147C269.447 161.312 268.453 163.628 270.936 164.123C275.893 164.981 280.99 164.479 285.684 162.67C286.152 162.486 286.545 162.149 286.8 161.716C287.054 161.282 287.156 160.775 287.089 160.276L286.608 156.626C286.699 156.677 286.772 156.754 286.818 156.847C287.148 157.84 286.818 155.524 286.818 155.524C288.179 151.153 289.247 146.698 290.017 142.186L294.933 146.433C294.933 146.433 295.032 146.31 295.204 146.082C296.408 148.813 298.557 154.401 298.076 158.493C297.416 164.109 303.695 159.153 303.038 155.847C302.504 153.172 304.892 141.835 305.823 137.595C305.923 137.137 305.849 136.658 305.615 136.252C305.382 135.846 305.005 135.541 304.559 135.398V135.398Z" fill="url(#paint1_linear_12_668)"/>
<path d="M253.181 43.6713C253.181 43.6713 248.497 42.864 241.551 36.5671C236.056 31.5864 228.643 32.5657 225.784 33.194C225.687 33.215 225.598 33.2654 225.53 33.3382C225.462 33.4111 225.418 33.503 225.404 33.6016C225.39 33.7002 225.407 33.8008 225.451 33.8898C225.496 33.9788 225.567 34.052 225.654 34.0996C226.81 34.7313 228.601 35.6545 229.44 35.7598C229.44 35.7598 227.709 37.5499 229.549 38.5081C229.769 38.6162 230.015 38.661 230.259 38.6375C230.504 38.6139 230.737 38.523 230.932 38.3747C231.817 37.7289 234.275 39.196 237.839 39.9577C237.839 39.9577 251.731 54.3276 254.962 51.8917L253.181 43.6713Z" fill="#FEC3BE"/>
<path d="M277.098 24.1346C277.098 24.1346 278.391 29.6243 277.098 33.4993L282.913 34.3066L288.082 31.7232V28.3326C288.082 28.3326 285.659 23.1659 286.306 17.1919L277.098 24.1346Z" fill="#FEC3BE"/>
<path d="M293.564 143.123C293.564 143.123 297.778 151.357 297.118 156.847C296.457 162.337 302.61 157.493 301.963 154.264C301.44 151.652 303.772 140.575 304.681 136.454C304.78 136.009 304.71 135.543 304.484 135.146C304.258 134.75 303.893 134.452 303.459 134.309C301.518 133.671 298.266 132.888 296.633 134.085C294.221 135.857 293.564 143.123 293.564 143.123Z" fill="#8B416F"/>
<path d="M277.583 152.165C277.583 152.165 272.091 159.269 270.637 159.43C269.183 159.592 268.214 161.852 270.637 162.337C275.475 163.178 280.451 162.693 285.034 160.933C285.493 160.754 285.879 160.426 286.129 160.002C286.379 159.578 286.48 159.083 286.414 158.595L285.487 151.68L277.583 152.165Z" fill="#8B416F"/>
<path d="M268.537 76.7668L263.27 77.4688C263.993 83.6184 263.972 89.8326 263.207 95.977V118.09C263.207 118.09 263.105 120.038 267.15 122.87C271.392 125.818 275.48 128.981 279.398 132.347L294.056 145.04C294.056 145.04 299.871 137.935 299.063 133.737C299.063 133.737 289.371 130.67 288.079 125.664C287.338 122.8 283.581 120.399 280.505 118.89C278.571 117.952 277.017 116.38 276.1 114.436C275.183 112.493 274.959 110.294 275.466 108.206C275.645 107.48 275.923 106.782 276.291 106.131C278.875 101.611 282.59 91.4386 282.59 91.4386L275.483 77.8971L268.537 76.7668Z" fill="#4D4981"/>
<path opacity="0.05" d="M268.537 76.7668L263.27 77.4688C263.993 83.6184 263.972 89.8326 263.207 95.977V118.09C263.207 118.09 263.105 120.038 267.15 122.87C271.392 125.818 275.48 128.981 279.398 132.347L294.056 145.04C294.056 145.04 299.871 137.935 299.063 133.737C299.063 133.737 289.371 130.67 288.079 125.664C287.338 122.8 283.581 120.399 280.505 118.89C278.571 117.952 277.017 116.38 276.1 114.436C275.183 112.493 274.959 110.294 275.466 108.206C275.645 107.48 275.923 106.782 276.291 106.131C278.875 101.611 282.59 91.4386 282.59 91.4386L275.483 77.8971L268.537 76.7668Z" fill="black"/>
<path d="M276.291 152.66C276.291 152.66 285.821 154.274 286.144 155.243C286.467 156.212 286.144 153.951 286.144 153.951C286.144 153.951 291.636 137.321 290.358 122.632C289.08 107.943 291.973 98.2515 291.973 98.2515C291.973 98.2515 295.365 87.2723 293.427 80.9754C291.489 74.6785 271.136 77.4233 271.136 77.4233C271.136 77.4233 278.243 94.0536 278.082 101.965C278.082 101.965 278.889 125.861 280.343 128.606C280.329 128.592 278.068 152.003 276.291 152.66Z" fill="#4D4981"/>
<path d="M277.411 28.3325C277.411 28.3325 278.38 34.2995 288.072 31.7232L281.625 80.8033C281.625 80.8033 262.887 81.4491 263.049 79.1887L266.911 49.4837L277.411 28.3325Z" fill="white"/>
<path opacity="0.1" d="M277.664 28.0095C276.402 29.2515 274.757 30.0318 272.997 30.2243C271.389 30.3475 269.825 30.8118 268.411 31.5862C266.75 32.5163 264.899 33.8677 264.337 35.5139C263.207 38.7431 256.099 44.0712 252.869 42.941L254 52.6286C254 52.6286 263.207 52.1442 264.822 48.5921L262.08 83.1619H264.503C264.503 83.1619 265.795 73.7973 266.764 71.8598C267.733 69.9222 269.671 59.2659 269.833 56.6826C269.995 54.0992 272.417 39.245 274.517 36.6757L277.678 29.0064L277.664 28.0095Z" fill="black"/>
<path opacity="0.1" d="M277.664 28.4941C276.22 29.6228 274.494 30.3332 272.674 30.5475C271.066 30.6733 269.504 31.14 268.091 31.9164C266.43 32.8465 264.58 34.1979 264.018 35.844C262.887 39.0732 255.78 44.4014 252.549 43.2712L253.68 52.9587C253.68 52.9587 262.887 52.4744 264.503 48.9223L261.756 83.471H264.179C264.179 83.471 265.472 74.1064 266.441 72.1689C267.41 70.2314 269.348 59.5751 269.51 56.9917C269.671 54.4084 272.094 39.5541 274.194 36.9848L277.664 29.4594V28.4941Z" fill="black"/>
<path d="M277.664 28.1711C276.22 29.2998 274.494 30.0101 272.674 30.2245C271.066 30.3477 269.502 30.8119 268.088 31.5864C266.427 32.5165 264.576 33.8678 264.014 35.514C262.884 38.7432 255.776 44.0714 252.546 42.9412L253.676 52.6287C253.676 52.6287 262.884 52.1443 264.499 48.5922L261.756 83.1621H264.179C264.179 83.1621 265.472 73.7974 266.441 71.8599C267.41 69.9224 269.348 59.2661 269.51 56.6827C269.671 54.0994 272.094 39.2451 274.194 36.6758L277.667 29.168L277.664 28.1711Z" fill="#FD6F8D"/>
<path opacity="0.1" d="M285.902 21.9549C285.691 20.4246 286.112 19.4699 286.306 17.6763L277.098 24.619C277.098 24.619 277.32 25.5562 277.488 26.9286C277.953 27.0036 278.422 27.0412 278.893 27.0409C282.088 27.0409 284.388 24.5453 285.902 21.9549Z" fill="black"/>
<path d="M278.875 26.5602C283.693 26.5602 287.598 22.6566 287.598 17.8414C287.598 13.0261 283.693 9.12256 278.875 9.12256C274.058 9.12256 270.153 13.0261 270.153 17.8414C270.153 22.6566 274.058 26.5602 278.875 26.5602Z" fill="#FEC3BE"/>
<path opacity="0.1" d="M269.355 9.29555C269.299 7.8252 269.538 6.35851 270.058 4.98177C269.913 5.19838 269.852 5.45988 269.886 5.71795C269.92 5.97603 270.045 6.21323 270.24 6.38577C270.522 4.88528 271.292 3.52017 272.432 2.50372C271.81 2.60551 271.49 3.3742 271.645 3.98494C271.855 4.58147 272.228 5.10694 272.723 5.50125C272.67 4.57813 273.281 3.71467 274.054 3.20923C274.859 2.74709 275.738 2.42876 276.652 2.26855C276.339 2.37979 276.071 2.59162 275.891 2.871C275.71 3.15037 275.627 3.48158 275.655 3.81295C275.658 3.92553 275.704 4.03259 275.785 4.1113C275.873 4.16741 275.976 4.19443 276.08 4.18852C276.99 4.22357 277.901 4.20364 278.808 4.12885C279.924 4.00333 281.046 3.94356 282.169 3.94984C285.681 4.09726 289.21 6.49458 289.996 9.91681C290.159 10.7472 290.245 11.5908 290.253 12.437L290.425 16.7578C290.525 18.0183 290.473 19.2863 290.27 20.5345C290.027 21.6868 289.532 22.7713 288.821 23.7105C288.111 24.6497 287.201 25.4205 286.158 25.968C284.89 24.1323 284.778 21.7735 284.339 19.5868C284.27 19.0822 284.082 18.6011 283.791 18.1828C283.641 17.976 283.43 17.821 283.188 17.7392C282.946 17.6575 282.684 17.653 282.439 17.7265C281.965 17.9161 281.762 18.6391 282.155 18.962C281.804 19.3762 281.147 19.0673 280.75 18.6988C279.642 17.648 278.879 16.2858 278.563 14.7922C278.405 14.041 278.247 13.1144 277.509 12.8582C277.256 12.7885 276.99 12.7706 276.73 12.8055C275.192 12.9108 272.786 13.5461 271.297 13.0582C269.931 12.6125 269.355 10.5907 269.355 9.29555Z" fill="black"/>
<path d="M269.517 9.13392C269.461 7.66357 269.7 6.19689 270.219 4.82015C270.075 5.03676 270.014 5.29826 270.048 5.55633C270.081 5.8144 270.207 6.05161 270.402 6.22414C270.683 4.72366 271.454 3.35855 272.593 2.3421C271.972 2.44389 271.652 3.21258 271.806 3.82332C272.016 4.41985 272.39 4.94531 272.885 5.33963C272.832 4.4165 273.443 3.55304 274.215 3.04761C275.02 2.58547 275.9 2.26714 276.814 2.10693C276.5 2.21817 276.233 2.43 276.052 2.70938C275.872 2.98875 275.789 3.31996 275.817 3.65132C275.819 3.76391 275.866 3.87097 275.947 3.94968C276.034 4.00579 276.138 4.03281 276.242 4.02689C277.151 4.06194 278.063 4.04201 278.97 3.96722C280.086 3.84171 281.208 3.78194 282.331 3.78821C285.842 3.93563 289.371 6.33295 290.158 9.75519C290.321 10.5855 290.407 11.4292 290.414 12.2754L290.586 16.5962C290.686 17.8567 290.634 19.1247 290.432 20.3729C290.188 21.5252 289.694 22.6096 288.983 23.5488C288.272 24.4881 287.363 25.2589 286.32 25.8063C285.052 23.9706 284.94 21.6119 284.501 19.4252C284.431 18.9206 284.244 18.4395 283.953 18.0212C283.803 17.8144 283.592 17.6594 283.35 17.5776C283.107 17.4959 282.846 17.4914 282.601 17.5649C282.127 17.7544 281.923 18.4775 282.317 18.8004C281.965 19.2146 281.309 18.9057 280.912 18.5372C279.804 17.4864 279.041 16.1241 278.724 14.6306C278.566 13.8794 278.408 12.9528 277.671 12.6966C277.417 12.6269 277.152 12.609 276.891 12.6439C275.353 12.7492 272.948 13.3845 271.459 12.8966C270.093 12.4473 269.517 10.4291 269.517 9.13392Z" fill="#784F69"/>
<path opacity="0.1" d="M252.128 42.9446C252.128 42.9446 250.836 48.9115 253.259 52.6321L254.632 52.5198L253.884 43.0429L252.128 42.9446Z" fill="black"/>
<path d="M252.479 42.9446C252.479 42.9446 251.187 48.9115 253.61 52.6321L254.983 52.5198L254.235 43.0429L252.479 42.9446Z" fill="#FD6F8D"/>
<path opacity="0.1" d="M287.194 26.6514L297.613 35.6124C297.613 35.6124 303.751 41.9093 301.166 52.0812C301.166 52.0812 300.036 66.9355 298.743 67.5813C298.743 67.5813 294.221 76.623 293.898 85.1804C293.898 85.1804 287.84 72.9902 285.094 80.4173C282.348 87.8444 275.964 88.8939 275.964 88.8939L279.518 44.963C279.518 44.963 288.486 29.3821 287.194 26.6514Z" fill="black"/>
<path d="M287.517 26.6514L297.936 35.6124C297.936 35.6124 304.074 41.9093 301.489 52.0812C301.489 52.0812 300.359 66.9355 299.066 67.5813C299.066 67.5813 294.544 76.623 294.221 85.1804C294.221 85.1804 287.84 72.3443 285.091 79.7715C282.341 87.1986 276.287 88.8974 276.287 88.8974L279.841 44.984C279.841 44.984 288.809 29.3821 287.517 26.6514Z" fill="#FD6F8D"/>
<path d="M292.282 64.4995C292.282 64.4995 294.867 62.7235 299.066 67.5673L288.729 86.2965L285.256 81.0561C285.256 81.0561 292.605 66.5985 292.282 64.4995Z" fill="#FEC3BE"/>
<path opacity="0.1" d="M289.779 65.549C289.779 65.549 295.495 71.9653 297.725 70.9368L299.79 66.1317L292.04 62.8042L289.779 65.549Z" fill="black"/>
<path d="M289.779 65.226C289.779 65.226 295.495 71.6423 297.725 70.6138L299.79 65.8087L292.04 62.4812L289.779 65.226Z" fill="#FD6F8D"/>
<path opacity="0.1" d="M285.607 79.8311C285.607 79.8311 288.328 85.4049 289.779 85.7278L287.672 88.1497L284.603 82.3372L285.607 79.8311Z" fill="black"/>
<path d="M285.445 80.0032C285.445 80.0032 288.167 85.577 289.617 85.8999L287.51 88.3218L284.434 82.4988L285.445 80.0032Z" fill="#4D4981"/>
<path opacity="0.1" d="M290.586 45.5281C290.586 45.5281 290.909 57.1531 289.617 61.5125Z" fill="black"/>
<path opacity="0.1" d="M264.418 47.7895C264.418 47.7895 266.357 47.1434 266.357 45.5281Z" fill="black"/>
<path d="M29.0369 49.7329C29.0369 49.7329 19.8296 68.7711 25.8765 91.3017C31.9233 113.832 30.0025 140.792 23.9732 147.461" stroke="#535461" stroke-width="2" stroke-miterlimit="10"/>
<path d="M29.0369 52.2742C30.439 52.2742 31.5757 51.138 31.5757 49.7364C31.5757 48.3349 30.439 47.1987 29.0369 47.1987C27.6347 47.1987 26.498 48.3349 26.498 49.7364C26.498 51.138 27.6347 52.2742 29.0369 52.2742Z" fill="white"/>
<path d="M25.2092 61.9801C25.2092 61.9801 34.7536 63.7008 37.2924 60.2244" stroke="#535461" stroke-width="2" stroke-miterlimit="10"/>
<path d="M24.3033 67.5075C24.3033 67.5075 18.562 61.1579 18.878 57.3496" stroke="#535461" stroke-width="2" stroke-miterlimit="10"/>
<path d="M23.8152 79.1397C23.8152 79.1397 29.0368 80.5156 33.8019 70.3647" stroke="#535461" stroke-width="2" stroke-miterlimit="10"/>
<path d="M25.2093 87.5987C25.2093 87.5987 12.2166 79.2414 13.8003 73.8501" stroke="#535461" stroke-width="2" stroke-miterlimit="10"/>
<path d="M27.2389 97.1635C27.2389 97.1635 36.3408 89.0906 35.3892 81.1475" stroke="#535461" stroke-width="2" stroke-miterlimit="10"/>
<path d="M28.2292 102.786C28.2292 102.786 16.6412 99.5503 16.9923 94.4749" stroke="#535461" stroke-width="2" stroke-miterlimit="10"/>
<path d="M29.0369 109.487C29.0369 109.487 36.3374 102.727 37.289 98.606" stroke="#535461" stroke-width="2" stroke-miterlimit="10"/>
<path d="M29.546 120.982C29.546 120.982 22.0559 112.242 21.7364 107.802" stroke="#535461" stroke-width="2" stroke-miterlimit="10"/>
<path d="M29.546 128.216C29.546 128.216 37.928 118.908 38.5601 114.468" stroke="#535461" stroke-width="2" stroke-miterlimit="10"/>
<path d="M18.878 60.5227C20.2801 60.5227 21.4168 59.3865 21.4168 57.985C21.4168 56.5834 20.2801 55.4473 18.878 55.4473C17.4758 55.4473 16.3391 56.5834 16.3391 57.985C16.3391 59.3865 17.4758 60.5227 18.878 60.5227Z" fill="white"/>
<path d="M16.0231 97.0125C17.4253 97.0125 18.5619 95.8763 18.5619 94.4747C18.5619 93.0732 17.4253 91.937 16.0231 91.937C14.6209 91.937 13.4843 93.0732 13.4843 94.4747C13.4843 95.8763 14.6209 97.0125 16.0231 97.0125Z" fill="white"/>
<path d="M13.8003 76.3879C15.2025 76.3879 16.3392 75.2518 16.3392 73.8502C16.3392 72.4487 15.2025 71.3125 13.8003 71.3125C12.3982 71.3125 11.2615 72.4487 11.2615 73.8502C11.2615 75.2518 12.3982 76.3879 13.8003 76.3879Z" fill="white"/>
<path d="M37.2925 62.7444C38.6946 62.7444 39.8313 61.6082 39.8313 60.2067C39.8313 58.8051 38.6946 57.6689 37.2925 57.6689C35.8903 57.6689 34.7536 58.8051 34.7536 60.2067C34.7536 61.6082 35.8903 62.7444 37.2925 62.7444Z" fill="white"/>
<path d="M37.2925 101.772C38.6946 101.772 39.8313 100.636 39.8313 99.2343C39.8313 97.8327 38.6946 96.6965 37.2925 96.6965C35.8903 96.6965 34.7536 97.8327 34.7536 99.2343C34.7536 100.636 35.8903 101.772 37.2925 101.772Z" fill="white"/>
<path d="M33.1664 72.8989C34.5686 72.8989 35.7053 71.7628 35.7053 70.3612C35.7053 68.9597 34.5686 67.8235 33.1664 67.8235C31.7643 67.8235 30.6276 68.9597 30.6276 70.3612C30.6276 71.7628 31.7643 72.8989 33.1664 72.8989Z" fill="white"/>
<path d="M38.244 118.592C39.6462 118.592 40.7829 117.456 40.7829 116.054C40.7829 114.653 39.6462 113.516 38.244 113.516C36.8419 113.516 35.7052 114.653 35.7052 116.054C35.7052 117.456 36.8419 118.592 38.244 118.592Z" fill="white"/>
<path d="M21.1008 111.927C22.503 111.927 23.6396 110.79 23.6396 109.389C23.6396 107.987 22.503 106.851 21.1008 106.851C19.6986 106.851 18.562 107.987 18.562 109.389C18.562 110.79 19.6986 111.927 21.1008 111.927Z" fill="white"/>
<path d="M35.7053 83.6851C37.1074 83.6851 38.2441 82.5489 38.2441 81.1473C38.2441 79.7458 37.1074 78.6096 35.7053 78.6096C34.3031 78.6096 33.1664 79.7458 33.1664 81.1473C33.1664 82.5489 34.3031 83.6851 35.7053 83.6851Z" fill="white"/>
</g>
<defs>
<linearGradient id="paint0_linear_12_668" x1="156.653" y1="147.876" x2="156.653" y2="19.498" gradientUnits="userSpaceOnUse">
<stop stop-color="#808080" stop-opacity="0.25"/>
<stop offset="0.54" stop-color="#808080" stop-opacity="0.12"/>
<stop offset="1" stop-color="#808080" stop-opacity="0.1"/>
</linearGradient>
<linearGradient id="paint1_linear_12_668" x1="71627.6" y1="105906" x2="71627.6" y2="28800.7" gradientUnits="userSpaceOnUse">
<stop stop-color="#808080" stop-opacity="0.25"/>
<stop offset="0.54" stop-color="#808080" stop-opacity="0.12"/>
<stop offset="1" stop-color="#808080" stop-opacity="0.1"/>
</linearGradient>
<clipPath id="clip0_12_668">
<rect width="335" height="193" fill="white"/>
</clipPath>
</defs>
</svg>