<svg width="200" height="138" viewBox="0 0 200 138" fill="none" xmlns="http://www.w3.org/2000/svg">
<g clip-path="url(#clip0_14_31)">
<path opacity="0.1" d="M113.126 18.7882C100.306 18.8054 87.9666 15.1732 76.1638 11.1382C64.3611 7.10325 52.6492 2.58489 40.0679 0.67025C31.9764 -0.560469 22.7754 -0.447339 16.4504 4.0213C10.3621 8.32025 8.59907 15.4355 7.74842 22.009C7.10872 26.9542 6.81373 32.1444 9.20961 36.6679C10.8732 39.8082 13.7201 42.3964 15.7267 45.3893C22.7308 55.8007 18.5187 69.1003 11.7118 79.7534C8.52018 84.7517 4.78144 89.5426 2.36841 94.8271C-0.0446136 100.112 -1.03418 106.104 1.42687 111.32C3.86562 116.49 9.37425 120.242 15.2859 122.805C27.291 128.019 41.2684 129.136 54.8702 129.567C84.979 130.521 115.146 128.574 145.233 126.627C156.367 125.907 167.55 125.182 178.454 123.096C184.508 121.939 190.742 120.221 195.035 116.457C200.484 111.678 201.598 103.876 197.633 98.2673C190.984 88.8604 173.452 87.0863 168.684 76.908C166.055 71.3046 168.322 64.8785 171.661 59.4774C178.823 47.8884 191.15 37.5078 191.358 24.5459C191.5 15.6446 185.09 6.96098 175.515 3.09226C165.478 -0.959853 151.794 0.082316 144.763 7.63461C137.532 15.4149 124.445 18.7762 113.126 18.7882Z" fill="white"/>
<path d="M170.22 110.621C170.22 110.621 168.113 109.23 166.024 110.22C166.024 110.22 166.667 111.458 169.312 111.342L170.22 110.621Z" fill="white"/>
<path d="M170.488 110.694C170.488 110.694 171.129 113.135 169.521 114.796C169.521 114.796 168.554 113.79 169.521 111.325L170.488 110.694Z" fill="white"/>
<path d="M173.109 108.351C173.109 108.351 172.953 106.276 168.262 106.965C168.262 106.965 168.24 108.303 169.886 108.938C171.532 109.572 172.287 109.037 173.109 108.351Z" fill="white"/>
<path d="M173.404 108.338C173.404 108.338 175.386 108.974 173.618 113.37C173.618 113.37 172.309 113.079 172.074 111.329C171.839 109.579 172.536 108.975 173.404 108.338Z" fill="white"/>
<path d="M176.052 105.393C176.052 105.393 176.321 101.977 171.527 102.326C171.527 102.326 171.184 105.412 175.206 106.214L176.052 105.393Z" fill="white"/>
<path d="M179.219 101.536C179.219 101.536 178.562 97.664 173.771 98.8176C173.771 98.8176 173.753 102.165 178.437 102.458L179.219 101.536Z" fill="white"/>
<path d="M181.534 97.5491C181.534 97.5491 180.433 93.7781 175.686 94.906C175.686 94.906 176.816 98.2982 181.219 98.245L181.534 97.5491Z" fill="white"/>
<path d="M183.733 93.6546C183.733 93.6546 182.658 89.7413 178.073 90.9121C178.073 90.9121 179.603 94.63 183.43 94.3163L183.733 93.6546Z" fill="white"/>
<path d="M185.15 89.9557C185.15 89.9557 184.323 85.1699 180.049 86.2292C180.049 86.2292 181.291 90.583 184.836 90.6533L185.15 89.9557Z" fill="white"/>
<path d="M186.479 85.487C186.479 85.487 185.486 80.6635 181.162 82.0587C181.162 82.0587 182.857 86.6183 186.172 86.1469L186.479 85.487Z" fill="white"/>
<path d="M187.295 81.3286C187.295 81.3286 185.719 76.5034 182.376 76.6337C182.376 76.6337 183.987 81.7297 187.016 82.2902L187.295 81.3286Z" fill="white"/>
<path d="M187.823 77.2697C187.823 77.2697 186.108 71.4623 183.388 71.9097C183.388 71.9097 184.575 76.3492 187.727 78.1748L187.823 77.2697Z" fill="white"/>
<path d="M188.122 72.4274C188.122 72.4274 186.513 67.5885 183.834 67.3948C183.834 67.3948 184.928 72.1565 188.069 73.6855L188.122 72.4274Z" fill="white"/>
<path d="M188.446 67.9091C188.446 67.9091 186.441 63.065 184.673 62.9553C184.673 62.9553 185.544 67.7256 188.274 68.7044L188.446 67.9091Z" fill="white"/>
<path d="M188.667 63.7061C188.667 63.7061 187.434 58.4455 185.662 58.0084C185.662 58.0084 185.904 62.3125 188.489 64.1003L188.667 63.7061Z" fill="white"/>
<path d="M189.336 58.2003C189.336 58.2003 188.039 54.0059 186.604 53.3666C186.604 53.3666 186.887 58.3117 189.005 59.2254L189.336 58.2003Z" fill="white"/>
<path d="M189.89 54.6008L190.151 47.2062C190.151 47.2062 187.467 52.7804 189.696 55.8983L189.89 54.6008Z" fill="white"/>
<path d="M191.962 47.2455C191.962 47.2455 193.895 41.8461 194.363 41.5444C194.363 41.5444 190.573 45.048 190.943 49.5544L191.962 47.2455Z" fill="white"/>
<path d="M176.182 105.367C176.182 105.367 179.581 104.923 179.48 109.724C179.48 109.724 176.408 110.225 175.405 106.253L176.182 105.367Z" fill="white"/>
<path d="M179.38 101.406C179.38 101.406 183.308 101.394 182.982 106.308C182.982 106.308 179.684 106.898 178.597 102.335L179.38 101.406Z" fill="white"/>
<path d="M181.572 97.8662C181.572 97.8662 185.138 96.195 187.419 100.509C187.419 100.509 184.126 101.901 181.257 98.5638L181.572 97.8662Z" fill="white"/>
<path d="M183.812 93.6906C183.812 93.6906 187.463 91.9131 189.607 96.1264C189.607 96.1264 185.803 97.4359 183.51 94.3574L183.812 93.6906Z" fill="white"/>
<path d="M185.103 90.0602C185.103 90.0602 188.617 86.7057 191.421 90.0979C191.421 90.0979 187.832 92.8593 184.942 90.8075L185.103 90.0602Z" fill="white"/>
<path d="M186.28 85.3723C186.28 85.3723 189.815 81.9441 192.596 85.53C192.596 85.53 188.629 88.3462 186.153 86.0922L186.28 85.3723Z" fill="white"/>
<path d="M186.94 81.1915C186.94 81.1915 189.664 76.9063 192.871 77.8627C192.871 77.8627 190.044 82.3999 186.971 82.1976L186.94 81.1915Z" fill="white"/>
<path d="M187.743 77.2422C187.743 77.2422 190.487 71.8463 193.083 72.7856C193.083 72.7856 191.104 76.9337 187.672 78.1524L187.743 77.2422Z" fill="white"/>
<path d="M187.933 72.1463C187.933 72.1463 190.754 67.8988 193.397 68.4182C193.397 68.4182 191.09 72.7257 187.659 73.3753L187.933 72.1463Z" fill="white"/>
<path d="M188.153 67.8147C188.153 67.8147 190.339 63.0478 192.116 63.0153C192.116 63.0153 191.066 67.7479 188.3 68.6238L188.153 67.8147Z" fill="white"/>
<path d="M188.581 63.6032C188.581 63.6032 191.012 58.7763 192.838 58.766C192.838 58.766 191.595 62.8935 188.662 64.0265L188.581 63.6032Z" fill="white"/>
<path d="M188.947 58.502C188.947 58.502 190.765 54.5082 192.27 54.0557C192.27 54.0557 191.361 58.9237 189.147 59.5613L188.947 58.502Z" fill="white"/>
<path d="M190.106 54.4551L194.169 48.2689C194.169 48.2689 193.128 54.3711 189.513 55.6395L190.106 54.4551Z" fill="white"/>
<path d="M192.895 47.7444C192.895 47.7444 197.616 44.4877 197.788 43.9614C197.788 43.9614 195.387 48.5226 190.928 49.3283L192.895 47.7444Z" fill="white"/>
<path d="M193.178 46.2788C193.178 46.2788 198.599 41.0697 199.983 41.0748C199.983 41.0748 195.512 41.2788 193.047 46.0011L193.178 46.2788Z" fill="white"/>
<path d="M189 59.275L189.197 59.3007C190.216 51.3319 191.701 46.6164 193.378 46.0388L193.313 45.8502C191.535 46.4673 190.039 51.1108 189 59.275Z" fill="#444053"/>
<path d="M187.501 78.3325L187.799 78.3565C187.863 77.6126 187.911 76.8515 187.943 76.0922C188.228 69.4964 188.669 63.4387 189.249 58.8981L189.077 58.6838C188.496 63.2348 187.93 69.4741 187.645 76.0802C187.612 76.8344 187.564 77.592 187.501 78.3325Z" fill="#444053"/>
<path d="M164.657 114.423C164.708 114.4 169.961 112.055 175.413 106.464C178.608 103.189 181.262 99.4287 183.277 95.3225C185.798 90.1922 187.335 83.8878 187.849 77.7633L187.539 77.909C186.381 91.656 180.119 101.049 175.141 106.166C169.742 111.708 164.547 114.028 164.496 114.051L164.657 114.423Z" fill="#444053"/>
<path d="M178.259 14.6093H13.4663C13.0769 14.6093 12.7035 14.7638 12.4282 15.039C12.1529 15.3142 11.9982 15.6874 11.9982 16.0765V20.3515H179.727V16.0765C179.727 15.6874 179.572 15.3142 179.297 15.039C179.021 14.7638 178.648 14.6093 178.259 14.6093V14.6093Z" fill="#3F3D56"/>
<path d="M11.9982 20.3514V116.553C11.9982 117.338 12.3101 118.09 12.8652 118.645C13.4203 119.2 14.1733 119.512 14.9583 119.512H176.767C177.552 119.512 178.305 119.2 178.86 118.645C179.415 118.09 179.727 117.338 179.727 116.553V20.3514H11.9982Z" fill="white"/>
<path opacity="0.8" d="M14.6548 18.1238C15.0337 18.1238 15.3408 17.8167 15.3408 17.4378C15.3408 17.059 15.0337 16.7518 14.6548 16.7518C14.276 16.7518 13.9688 17.059 13.9688 17.4378C13.9688 17.8167 14.276 18.1238 14.6548 18.1238Z" fill="#FA5959"/>
<path opacity="0.8" d="M16.5413 18.1238C16.9202 18.1238 17.2273 17.8167 17.2273 17.4378C17.2273 17.059 16.9202 16.7518 16.5413 16.7518C16.1625 16.7518 15.8553 17.059 15.8553 17.4378C15.8553 17.8167 16.1625 18.1238 16.5413 18.1238Z" fill="#FED253"/>
<path opacity="0.8" d="M18.4278 18.1238C18.8067 18.1238 19.1138 17.8167 19.1138 17.4378C19.1138 17.059 18.8067 16.7518 18.4278 16.7518C18.0489 16.7518 17.7418 17.059 17.7418 17.4378C17.7418 17.8167 18.0489 18.1238 18.4278 18.1238Z" fill="#8CCF4D"/>
<path opacity="0.05" d="M162.39 36.392H27.5894V95.6345H162.39V36.392Z" fill="black"/>
<path d="M161.361 36.8409H28.6184V94.7773H161.361V36.8409Z" fill="#3F3D56"/>
<path d="M64.8053 51.752C62.1934 51.752 59.6403 52.526 57.4686 53.9763C55.297 55.4266 53.6044 57.4879 52.6048 59.8996C51.6053 62.3113 51.3438 64.9651 51.8534 67.5254C52.3629 70.0856 53.6206 72.4374 55.4675 74.2832C57.3143 76.1291 59.6673 77.3861 62.229 77.8954C64.7906 78.4046 67.4458 78.1433 69.8588 77.1443C72.2718 76.1453 74.3343 74.4537 75.7853 72.2832C77.2364 70.1127 78.0109 67.5609 78.0109 64.9505C78.0109 63.2172 77.6693 61.5009 77.0057 59.8996C76.342 58.2983 75.3693 56.8433 74.143 55.6177C72.9168 54.3921 71.461 53.4199 69.8588 52.7566C68.2566 52.0933 66.5394 51.752 64.8053 51.752V51.752ZM67.1737 65.2676V71.5172H62.5054V65.2676C61.8594 64.7788 61.3833 64.0996 61.1443 63.3259C60.9053 62.5521 60.9155 61.7229 61.1734 60.9552C61.4313 60.1876 61.9239 59.5203 62.5818 59.0475C63.2396 58.5747 64.0293 58.3204 64.8396 58.3204C65.6498 58.3204 66.4395 58.5747 67.0974 59.0475C67.7552 59.5203 68.2478 60.1876 68.5057 60.9552C68.7637 61.7229 68.7738 62.5521 68.5348 63.3259C68.2958 64.0996 67.8197 64.7788 67.1737 65.2676V65.2676Z" fill="white"/>
<path opacity="0.05" d="M64.8053 51.752C62.1934 51.752 59.6403 52.526 57.4686 53.9763C55.297 55.4266 53.6044 57.4879 52.6048 59.8996C51.6053 62.3113 51.3438 64.9651 51.8534 67.5254C52.3629 70.0856 53.6206 72.4374 55.4675 74.2832C57.3143 76.1291 59.6673 77.3861 62.229 77.8954C64.7906 78.4046 67.4458 78.1433 69.8588 77.1443C72.2718 76.1453 74.3343 74.4537 75.7853 72.2832C77.2364 70.1127 78.0109 67.5609 78.0109 64.9505C78.0109 63.2172 77.6693 61.5009 77.0057 59.8996C76.342 58.2983 75.3693 56.8433 74.143 55.6177C72.9168 54.3921 71.461 53.4199 69.8588 52.7566C68.2566 52.0933 66.5394 51.752 64.8053 51.752V51.752ZM67.1737 65.2676V71.5172H62.5054V65.2676C61.8594 64.7788 61.3833 64.0996 61.1443 63.3259C60.9053 62.5521 60.9155 61.7229 61.1734 60.9552C61.4313 60.1876 61.9239 59.5203 62.5818 59.0475C63.2396 58.5747 64.0293 58.3204 64.8396 58.3204C65.6498 58.3204 66.4395 58.5747 67.0974 59.0475C67.7552 59.5203 68.2478 60.1876 68.5057 60.9552C68.7637 61.7229 68.7738 62.5521 68.5348 63.3259C68.2958 64.0996 67.8197 64.7788 67.1737 65.2676V65.2676Z" fill="black"/>
<path d="M64.8052 47.981C61.4472 47.981 58.1645 48.9762 55.3724 50.8408C52.5803 52.7055 50.4041 55.3558 49.119 58.4565C47.8339 61.5573 47.4977 64.9693 48.1528 68.2611C48.808 71.5528 50.425 74.5765 52.7995 76.9498C55.174 79.323 58.1993 80.9392 61.4929 81.5939C64.7864 82.2487 68.2002 81.9127 71.3027 80.6283C74.4051 79.3439 77.0568 77.1689 78.9225 74.3782C80.7881 71.5876 81.7839 68.3067 81.7839 64.9505C81.7839 60.4499 79.9951 56.1336 76.811 52.9512C73.6269 49.7688 69.3083 47.981 64.8052 47.981V47.981ZM67.8494 65.3584V73.3924H61.8468V65.3584C61.0159 64.73 60.4035 63.8565 60.096 62.8614C59.7886 61.8663 59.8016 60.7999 60.1332 59.8126C60.4649 58.8252 61.0984 57.967 61.9444 57.3589C62.7904 56.7509 63.8061 56.4238 64.8481 56.4238C65.8901 56.4238 66.9059 56.7509 67.7518 57.3589C68.5978 57.967 69.2314 58.8252 69.563 59.8126C69.8947 60.7999 69.9077 61.8663 69.6002 62.8614C69.2927 63.8565 68.6803 64.73 67.8494 65.3584V65.3584Z" fill="white"/>
<path d="M143.696 62.7238H88.8156V68.5517H143.696V62.7238Z" fill="white"/>
<path d="M143.696 73.3512H131.862V79.1791H143.696V73.3512Z" fill="white"/>
<path d="M94.2179 65.5504H93.2249L94.1081 64.6694C94.1239 64.6531 94.1328 64.6313 94.1328 64.6086C94.1328 64.5858 94.1239 64.564 94.1081 64.5477C94.1001 64.5397 94.0907 64.5333 94.0802 64.5289C94.0698 64.5246 94.0585 64.5224 94.0472 64.5224C94.0359 64.5224 94.0247 64.5246 94.0143 64.5289C94.0038 64.5333 93.9943 64.5397 93.9863 64.5477L93.1031 65.4305V64.4363C93.1031 64.4136 93.0941 64.3918 93.078 64.3757C93.0619 64.3596 93.0401 64.3506 93.0174 64.3506C92.9948 64.351 92.9732 64.3602 92.9572 64.3762C92.9412 64.3921 92.9321 64.4137 92.9316 64.4363V65.4305L92.0501 64.5426C92.0421 64.5345 92.0326 64.5282 92.0222 64.5238C92.0117 64.5195 92.0005 64.5172 91.9892 64.5172C91.9779 64.5172 91.9667 64.5195 91.9562 64.5238C91.9458 64.5282 91.9363 64.5345 91.9283 64.5426C91.9125 64.5589 91.9037 64.5807 91.9037 64.6034C91.9037 64.6261 91.9125 64.648 91.9283 64.6643L92.8116 65.5453H91.8169C91.7943 65.5457 91.7727 65.5549 91.7567 65.5709C91.7407 65.5869 91.7315 65.6084 91.7311 65.631C91.7311 65.6537 91.7401 65.6755 91.7562 65.6916C91.7723 65.7077 91.7941 65.7167 91.8169 65.7167H92.8116L91.9283 66.5995C91.9125 66.6158 91.9037 66.6376 91.9037 66.6603C91.9037 66.683 91.9125 66.7049 91.9283 66.7212C91.9448 66.7366 91.9666 66.7452 91.9892 66.7452C92.0118 66.7452 92.0336 66.7366 92.0501 66.7212L92.9316 65.8384V66.8309C92.9316 66.8536 92.9406 66.8754 92.9567 66.8915C92.9728 66.9075 92.9946 66.9166 93.0174 66.9166C93.0401 66.9166 93.0619 66.9075 93.078 66.8915C93.0941 66.8754 93.1031 66.8536 93.1031 66.8309V65.8384L93.9863 66.7212C94.0029 66.7366 94.0246 66.7452 94.0472 66.7452C94.0698 66.7452 94.0916 66.7366 94.1081 66.7212C94.1239 66.7049 94.1328 66.683 94.1328 66.6603C94.1328 66.6376 94.1239 66.6158 94.1081 66.5995L93.2249 65.7167H94.2179C94.2406 65.7167 94.2624 65.7077 94.2785 65.6916C94.2946 65.6755 94.3036 65.6537 94.3036 65.631C94.3023 65.6092 94.2927 65.5887 94.2768 65.5737C94.2608 65.5587 94.2398 65.5504 94.2179 65.5504Z" fill="white"/>
<path d="M97.8193 65.5504H96.8263L97.7095 64.6694C97.7254 64.6531 97.7342 64.6313 97.7342 64.6086C97.7342 64.5858 97.7254 64.564 97.7095 64.5477C97.7016 64.5397 97.6921 64.5333 97.6816 64.5289C97.6712 64.5246 97.66 64.5224 97.6487 64.5224C97.6373 64.5224 97.6261 64.5246 97.6157 64.5289C97.6052 64.5333 97.5957 64.5397 97.5878 64.5477L96.7045 65.4305V64.4363C96.7045 64.4136 96.6955 64.3918 96.6794 64.3757C96.6633 64.3596 96.6415 64.3506 96.6188 64.3506C96.5962 64.351 96.5746 64.3602 96.5586 64.3762C96.5427 64.3921 96.5335 64.4137 96.533 64.4363V65.4305L95.6515 64.5426C95.6436 64.5345 95.6341 64.5282 95.6236 64.5238C95.6132 64.5195 95.602 64.5172 95.5906 64.5172C95.5793 64.5172 95.5681 64.5195 95.5577 64.5238C95.5472 64.5282 95.5377 64.5345 95.5298 64.5426C95.5139 64.5589 95.5051 64.5807 95.5051 64.6034C95.5051 64.6261 95.5139 64.648 95.5298 64.6643L96.413 65.5453H95.4183C95.3957 65.5457 95.3741 65.5549 95.3581 65.5709C95.3421 65.5869 95.333 65.6084 95.3325 65.631C95.3325 65.6537 95.3416 65.6755 95.3576 65.6916C95.3737 65.7077 95.3955 65.7167 95.4183 65.7167H96.413L95.5298 66.5995C95.5139 66.6158 95.5051 66.6376 95.5051 66.6603C95.5051 66.683 95.5139 66.7049 95.5298 66.7212C95.5463 66.7366 95.568 66.7452 95.5906 66.7452C95.6132 66.7452 95.635 66.7366 95.6515 66.7212L96.533 65.8384V66.8309C96.533 66.8536 96.5421 66.8754 96.5582 66.8915C96.5742 66.9075 96.5961 66.9166 96.6188 66.9166C96.6415 66.9166 96.6633 66.9075 96.6794 66.8915C96.6955 66.8754 96.7045 66.8536 96.7045 66.8309V65.8384L97.5878 66.7212C97.6043 66.7366 97.6261 66.7452 97.6487 66.7452C97.6713 66.7452 97.693 66.7366 97.7095 66.7212C97.7254 66.7049 97.7342 66.683 97.7342 66.6603C97.7342 66.6376 97.7254 66.6158 97.7095 66.5995L96.8263 65.7167H97.8193C97.8421 65.7167 97.8639 65.7077 97.8799 65.6916C97.896 65.6755 97.9051 65.6537 97.9051 65.631C97.9037 65.6092 97.8941 65.5887 97.8782 65.5737C97.8622 65.5587 97.8412 65.5504 97.8193 65.5504Z" fill="white"/>
<path d="M101.421 65.5504H100.428L101.311 64.6694C101.327 64.6531 101.336 64.6313 101.336 64.6086C101.336 64.5858 101.327 64.564 101.311 64.5477C101.303 64.5397 101.294 64.5333 101.283 64.5289C101.273 64.5246 101.262 64.5224 101.25 64.5224C101.239 64.5224 101.228 64.5246 101.217 64.5289C101.207 64.5333 101.197 64.5397 101.189 64.5477L100.306 65.4305V64.4363C100.306 64.4136 100.297 64.3918 100.281 64.3757C100.265 64.3596 100.243 64.3506 100.22 64.3506C100.198 64.351 100.176 64.3602 100.16 64.3762C100.144 64.3921 100.135 64.4137 100.135 64.4363V65.4305L99.2532 64.5426C99.2452 64.5345 99.2357 64.5282 99.2253 64.5238C99.2148 64.5195 99.2036 64.5172 99.1923 64.5172C99.181 64.5172 99.1698 64.5195 99.1593 64.5238C99.1489 64.5282 99.1394 64.5345 99.1314 64.5426C99.1156 64.5589 99.1067 64.5807 99.1067 64.6034C99.1067 64.6261 99.1156 64.648 99.1314 64.6643L100.015 65.5453H99.0199C98.9973 65.5457 98.9758 65.5549 98.9598 65.5709C98.9438 65.5869 98.9346 65.6084 98.9342 65.631C98.9342 65.6537 98.9432 65.6755 98.9593 65.6916C98.9754 65.7077 98.9972 65.7167 99.0199 65.7167H100.015L99.1314 66.5995C99.1156 66.6158 99.1067 66.6376 99.1067 66.6603C99.1067 66.683 99.1156 66.7049 99.1314 66.7212C99.1479 66.7366 99.1697 66.7452 99.1923 66.7452C99.2149 66.7452 99.2366 66.7366 99.2532 66.7212L100.135 65.8384V66.8309C100.135 66.8536 100.144 66.8754 100.16 66.8915C100.176 66.9075 100.198 66.9166 100.22 66.9166C100.243 66.9166 100.265 66.9075 100.281 66.8915C100.297 66.8754 100.306 66.8536 100.306 66.8309V65.8384L101.189 66.7212C101.206 66.7366 101.228 66.7452 101.25 66.7452C101.273 66.7452 101.295 66.7366 101.311 66.7212C101.327 66.7049 101.336 66.683 101.336 66.6603C101.336 66.6376 101.327 66.6158 101.311 66.5995L100.428 65.7167H101.421C101.444 65.7167 101.465 65.7077 101.482 65.6916C101.498 65.6755 101.507 65.6537 101.507 65.631C101.505 65.6092 101.496 65.5887 101.48 65.5737C101.464 65.5587 101.443 65.5504 101.421 65.5504Z" fill="white"/>
<path d="M105.022 65.5504H104.029L104.913 64.6694C104.928 64.6531 104.937 64.6313 104.937 64.6086C104.937 64.5858 104.928 64.564 104.913 64.5477C104.905 64.5397 104.895 64.5333 104.885 64.5289C104.874 64.5246 104.863 64.5224 104.852 64.5224C104.84 64.5224 104.829 64.5246 104.819 64.5289C104.808 64.5333 104.799 64.5397 104.791 64.5477L103.908 65.4305V64.4363C103.908 64.4136 103.899 64.3918 103.883 64.3757C103.866 64.3596 103.845 64.3506 103.822 64.3506C103.799 64.351 103.778 64.3602 103.762 64.3762C103.746 64.3921 103.737 64.4137 103.736 64.4363V65.4305L102.855 64.5426C102.847 64.5345 102.837 64.5282 102.827 64.5238C102.816 64.5195 102.805 64.5172 102.794 64.5172C102.782 64.5172 102.771 64.5195 102.761 64.5238C102.75 64.5282 102.741 64.5345 102.733 64.5426C102.717 64.5589 102.708 64.5807 102.708 64.6034C102.708 64.6261 102.717 64.648 102.733 64.6643L103.616 65.5453H102.621C102.599 65.5457 102.577 65.5549 102.561 65.5709C102.545 65.5869 102.536 65.6084 102.536 65.631C102.536 65.6537 102.545 65.6755 102.561 65.6916C102.577 65.7077 102.599 65.7167 102.621 65.7167H103.616L102.733 66.5995C102.717 66.6158 102.708 66.6376 102.708 66.6603C102.708 66.683 102.717 66.7049 102.733 66.7212C102.749 66.7366 102.771 66.7452 102.794 66.7452C102.816 66.7452 102.838 66.7366 102.855 66.7212L103.736 65.8384V66.8309C103.736 66.8536 103.745 66.8754 103.761 66.8915C103.777 66.9075 103.799 66.9166 103.822 66.9166C103.845 66.9166 103.866 66.9075 103.883 66.8915C103.899 66.8754 103.908 66.8536 103.908 66.8309V65.8384L104.791 66.7212C104.807 66.7366 104.829 66.7452 104.852 66.7452C104.874 66.7452 104.896 66.7366 104.913 66.7212C104.928 66.7049 104.937 66.683 104.937 66.6603C104.937 66.6376 104.928 66.6158 104.913 66.5995L104.029 65.7167H105.022C105.045 65.7167 105.067 65.7077 105.083 65.6916C105.099 65.6755 105.108 65.6537 105.108 65.631C105.107 65.6092 105.097 65.5887 105.081 65.5737C105.065 65.5587 105.044 65.5504 105.022 65.5504Z" fill="white"/>
<path d="M108.624 65.5504H107.631L108.514 64.6694C108.53 64.6531 108.539 64.6313 108.539 64.6086C108.539 64.5858 108.53 64.564 108.514 64.5477C108.506 64.5397 108.497 64.5333 108.486 64.5289C108.476 64.5246 108.465 64.5224 108.453 64.5224C108.442 64.5224 108.431 64.5246 108.42 64.5289C108.41 64.5333 108.4 64.5397 108.392 64.5477L107.509 65.4305V64.4363C107.509 64.4136 107.5 64.3918 107.484 64.3757C107.468 64.3596 107.446 64.3506 107.424 64.3506C107.401 64.351 107.379 64.3602 107.363 64.3762C107.347 64.3921 107.338 64.4137 107.338 64.4363V65.4305L106.456 64.5426C106.448 64.5345 106.439 64.5282 106.428 64.5238C106.418 64.5195 106.407 64.5172 106.395 64.5172C106.384 64.5172 106.373 64.5195 106.362 64.5238C106.352 64.5282 106.342 64.5345 106.334 64.5426C106.319 64.5589 106.31 64.5807 106.31 64.6034C106.31 64.6261 106.319 64.648 106.334 64.6643L107.218 65.5453H106.223C106.2 65.5457 106.179 65.5549 106.163 65.5709C106.147 65.5869 106.138 65.6084 106.137 65.631C106.137 65.6537 106.146 65.6755 106.162 65.6916C106.178 65.7077 106.2 65.7167 106.223 65.7167H107.218L106.334 66.5995C106.319 66.6158 106.31 66.6376 106.31 66.6603C106.31 66.683 106.319 66.7049 106.334 66.7212C106.351 66.7366 106.373 66.7452 106.395 66.7452C106.418 66.7452 106.44 66.7366 106.456 66.7212L107.338 65.8384V66.8309C107.338 66.8536 107.347 66.8754 107.363 66.8915C107.379 66.9075 107.401 66.9166 107.424 66.9166C107.446 66.9166 107.468 66.9075 107.484 66.8915C107.5 66.8754 107.509 66.8536 107.509 66.8309V65.8384L108.392 66.7212C108.409 66.7366 108.431 66.7452 108.453 66.7452C108.476 66.7452 108.498 66.7366 108.514 66.7212C108.53 66.7049 108.539 66.683 108.539 66.6603C108.539 66.6376 108.53 66.6158 108.514 66.5995L107.631 65.7167H108.624C108.647 65.7167 108.669 65.7077 108.685 65.6916C108.701 65.6755 108.71 65.6537 108.71 65.631C108.708 65.6092 108.699 65.5887 108.683 65.5737C108.667 65.5587 108.646 65.5504 108.624 65.5504Z" fill="white"/>
<path d="M112.225 65.5504H111.232L112.116 64.6694C112.132 64.6531 112.14 64.6313 112.14 64.6086C112.14 64.5858 112.132 64.564 112.116 64.5477C112.108 64.5397 112.098 64.5333 112.088 64.5289C112.077 64.5246 112.066 64.5224 112.055 64.5224C112.044 64.5224 112.032 64.5246 112.022 64.5289C112.011 64.5333 112.002 64.5397 111.994 64.5477L111.111 65.4305V64.4363C111.111 64.4136 111.102 64.3918 111.086 64.3757C111.07 64.3596 111.048 64.3506 111.025 64.3506C111.002 64.351 110.981 64.3602 110.965 64.3762C110.949 64.3921 110.94 64.4137 110.939 64.4363V65.4305L110.058 64.5426C110.05 64.5345 110.04 64.5282 110.03 64.5238C110.019 64.5195 110.008 64.5172 109.997 64.5172C109.985 64.5172 109.974 64.5195 109.964 64.5238C109.953 64.5282 109.944 64.5345 109.936 64.5426C109.92 64.5589 109.911 64.5807 109.911 64.6034C109.911 64.6261 109.92 64.648 109.936 64.6643L110.819 65.5453H109.824C109.802 65.5457 109.78 65.5549 109.764 65.5709C109.748 65.5869 109.739 65.6084 109.739 65.631C109.739 65.6537 109.748 65.6755 109.764 65.6916C109.78 65.7077 109.802 65.7167 109.824 65.7167H110.819L109.936 66.5995C109.92 66.6158 109.911 66.6376 109.911 66.6603C109.911 66.683 109.92 66.7049 109.936 66.7212C109.952 66.7366 109.974 66.7452 109.997 66.7452C110.019 66.7452 110.041 66.7366 110.058 66.7212L110.939 65.8384V66.8309C110.939 66.8536 110.948 66.8754 110.964 66.8915C110.98 66.9075 111.002 66.9166 111.025 66.9166C111.048 66.9166 111.07 66.9075 111.086 66.8915C111.102 66.8754 111.111 66.8536 111.111 66.8309V65.8384L111.994 66.7212C112.01 66.7366 112.032 66.7452 112.055 66.7452C112.077 66.7452 112.099 66.7366 112.116 66.7212C112.132 66.7049 112.14 66.683 112.14 66.6603C112.14 66.6376 112.132 66.6158 112.116 66.5995L111.232 65.7167H112.225C112.248 65.7167 112.27 65.7077 112.286 65.6916C112.302 65.6755 112.311 65.6537 112.311 65.631C112.31 65.6092 112.3 65.5887 112.284 65.5737C112.268 65.5587 112.247 65.5504 112.225 65.5504Z" fill="white"/>
<path d="M115.827 65.5504H114.834L115.717 64.6694C115.733 64.6531 115.742 64.6313 115.742 64.6086C115.742 64.5858 115.733 64.564 115.717 64.5477C115.709 64.5397 115.7 64.5333 115.689 64.5289C115.679 64.5246 115.668 64.5224 115.656 64.5224C115.645 64.5224 115.634 64.5246 115.623 64.5289C115.613 64.5333 115.604 64.5397 115.596 64.5477L114.712 65.4305V64.4363C114.712 64.4136 114.703 64.3918 114.687 64.3757C114.671 64.3596 114.649 64.3506 114.627 64.3506C114.604 64.351 114.582 64.3602 114.566 64.3762C114.55 64.3921 114.541 64.4137 114.541 64.4363V65.4305L113.659 64.5426C113.651 64.5345 113.642 64.5282 113.631 64.5238C113.621 64.5195 113.61 64.5172 113.598 64.5172C113.587 64.5172 113.576 64.5195 113.565 64.5238C113.555 64.5282 113.546 64.5345 113.538 64.5426C113.522 64.5589 113.513 64.5807 113.513 64.6034C113.513 64.6261 113.522 64.648 113.538 64.6643L114.421 65.5453H113.426C113.403 65.5457 113.382 65.5549 113.366 65.5709C113.35 65.5869 113.341 65.6084 113.34 65.631C113.34 65.6537 113.349 65.6755 113.365 65.6916C113.382 65.7077 113.403 65.7167 113.426 65.7167H114.421L113.538 66.5995C113.522 66.6158 113.513 66.6376 113.513 66.6603C113.513 66.683 113.522 66.7049 113.538 66.7212C113.554 66.7366 113.576 66.7452 113.598 66.7452C113.621 66.7452 113.643 66.7366 113.659 66.7212L114.541 65.8384V66.8309C114.541 66.8536 114.55 66.8754 114.566 66.8915C114.582 66.9075 114.604 66.9166 114.627 66.9166C114.649 66.9166 114.671 66.9075 114.687 66.8915C114.703 66.8754 114.712 66.8536 114.712 66.8309V65.8384L115.596 66.7212C115.612 66.7366 115.634 66.7452 115.656 66.7452C115.679 66.7452 115.701 66.7366 115.717 66.7212C115.733 66.7049 115.742 66.683 115.742 66.6603C115.742 66.6376 115.733 66.6158 115.717 66.5995L114.834 65.7167H115.827C115.85 65.7167 115.872 65.7077 115.888 65.6916C115.904 65.6755 115.913 65.6537 115.913 65.631C115.912 65.6092 115.902 65.5887 115.886 65.5737C115.87 65.5587 115.849 65.5504 115.827 65.5504Z" fill="white"/>
<path d="M119.429 65.5504H118.436L119.319 64.6694C119.335 64.6531 119.343 64.6313 119.343 64.6086C119.343 64.5858 119.335 64.564 119.319 64.5477C119.311 64.5397 119.301 64.5333 119.291 64.5289C119.28 64.5246 119.269 64.5224 119.258 64.5224C119.247 64.5224 119.235 64.5246 119.225 64.5289C119.214 64.5333 119.205 64.5397 119.197 64.5477L118.314 65.4305V64.4363C118.314 64.4136 118.305 64.3918 118.289 64.3757C118.273 64.3596 118.251 64.3506 118.228 64.3506C118.205 64.351 118.184 64.3602 118.168 64.3762C118.152 64.3921 118.143 64.4137 118.142 64.4363V65.4305L117.261 64.5426C117.253 64.5345 117.243 64.5282 117.233 64.5238C117.222 64.5195 117.211 64.5172 117.2 64.5172C117.189 64.5172 117.177 64.5195 117.167 64.5238C117.156 64.5282 117.147 64.5345 117.139 64.5426C117.123 64.5589 117.114 64.5807 117.114 64.6034C117.114 64.6261 117.123 64.648 117.139 64.6643L118.022 65.5453H117.028C117.005 65.5457 116.983 65.5549 116.967 65.5709C116.951 65.5869 116.942 65.6084 116.942 65.631C116.942 65.6537 116.951 65.6755 116.967 65.6916C116.983 65.7077 117.005 65.7167 117.028 65.7167H118.022L117.139 66.5995C117.123 66.6158 117.114 66.6376 117.114 66.6603C117.114 66.683 117.123 66.7049 117.139 66.7212C117.156 66.7366 117.177 66.7452 117.2 66.7452C117.222 66.7452 117.244 66.7366 117.261 66.7212L118.142 65.8384V66.8309C118.142 66.8536 118.151 66.8754 118.167 66.8915C118.183 66.9075 118.205 66.9166 118.228 66.9166C118.251 66.9166 118.273 66.9075 118.289 66.8915C118.305 66.8754 118.314 66.8536 118.314 66.8309V65.8384L119.197 66.7212C119.214 66.7366 119.235 66.7452 119.258 66.7452C119.281 66.7452 119.302 66.7366 119.319 66.7212C119.335 66.7049 119.343 66.683 119.343 66.6603C119.343 66.6376 119.335 66.6158 119.319 66.5995L118.436 65.7167H119.429C119.451 65.7167 119.473 65.7077 119.489 65.6916C119.505 65.6755 119.514 65.6537 119.514 65.631C119.513 65.6092 119.503 65.5887 119.487 65.5737C119.472 65.5587 119.45 65.5504 119.429 65.5504Z" fill="white"/>
<path d="M123.03 65.5504H122.037L122.92 64.6694C122.936 64.6531 122.945 64.6313 122.945 64.6086C122.945 64.5858 122.936 64.564 122.92 64.5477C122.912 64.5397 122.903 64.5333 122.892 64.5289C122.882 64.5246 122.871 64.5224 122.859 64.5224C122.848 64.5224 122.837 64.5246 122.826 64.5289C122.816 64.5333 122.807 64.5397 122.799 64.5477L121.915 65.4305V64.4363C121.915 64.4136 121.906 64.3918 121.89 64.3757C121.874 64.3596 121.852 64.3506 121.83 64.3506C121.807 64.351 121.785 64.3602 121.769 64.3762C121.753 64.3921 121.744 64.4137 121.744 64.4363V65.4305L120.862 64.5426C120.854 64.5345 120.845 64.5282 120.834 64.5238C120.824 64.5195 120.813 64.5172 120.801 64.5172C120.79 64.5172 120.779 64.5195 120.768 64.5238C120.758 64.5282 120.749 64.5345 120.741 64.5426C120.725 64.5589 120.716 64.5807 120.716 64.6034C120.716 64.6261 120.725 64.648 120.741 64.6643L121.624 65.5453H120.629C120.606 65.5457 120.585 65.5549 120.569 65.5709C120.553 65.5869 120.544 65.6084 120.543 65.631C120.543 65.6537 120.552 65.6755 120.568 65.6916C120.585 65.7077 120.606 65.7167 120.629 65.7167H121.624L120.741 66.5995C120.725 66.6158 120.716 66.6376 120.716 66.6603C120.716 66.683 120.725 66.7049 120.741 66.7212C120.757 66.7366 120.779 66.7452 120.801 66.7452C120.824 66.7452 120.846 66.7366 120.862 66.7212L121.744 65.8384V66.8309C121.744 66.8536 121.753 66.8754 121.769 66.8915C121.785 66.9075 121.807 66.9166 121.83 66.9166C121.852 66.9166 121.874 66.9075 121.89 66.8915C121.906 66.8754 121.915 66.8536 121.915 66.8309V65.8384L122.799 66.7212C122.815 66.7366 122.837 66.7452 122.859 66.7452C122.882 66.7452 122.904 66.7366 122.92 66.7212C122.936 66.7049 122.945 66.683 122.945 66.6603C122.945 66.6376 122.936 66.6158 122.92 66.5995L122.037 65.7167H123.03C123.053 65.7167 123.075 65.7077 123.091 65.6916C123.107 65.6755 123.116 65.6537 123.116 65.631C123.115 65.6092 123.105 65.5887 123.089 65.5737C123.073 65.5587 123.052 65.5504 123.03 65.5504Z" fill="white"/>
<path d="M126.632 65.5504H125.639L126.522 64.6694C126.538 64.6531 126.547 64.6313 126.547 64.6086C126.547 64.5858 126.538 64.564 126.522 64.5477C126.514 64.5397 126.504 64.5333 126.494 64.5289C126.484 64.5246 126.472 64.5224 126.461 64.5224C126.45 64.5224 126.438 64.5246 126.428 64.5289C126.418 64.5333 126.408 64.5397 126.4 64.5477L125.517 65.4305V64.4363C125.517 64.4136 125.508 64.3918 125.492 64.3757C125.476 64.3596 125.454 64.3506 125.431 64.3506C125.408 64.351 125.387 64.3602 125.371 64.3762C125.355 64.3921 125.346 64.4137 125.345 64.4363V65.4305L124.464 64.5426C124.456 64.5345 124.446 64.5282 124.436 64.5238C124.425 64.5195 124.414 64.5172 124.403 64.5172C124.392 64.5172 124.38 64.5195 124.37 64.5238C124.359 64.5282 124.35 64.5345 124.342 64.5426C124.326 64.5589 124.317 64.5807 124.317 64.6034C124.317 64.6261 124.326 64.648 124.342 64.6643L125.225 65.5453H124.231C124.208 65.5457 124.186 65.5549 124.17 65.5709C124.154 65.5869 124.145 65.6084 124.145 65.631C124.145 65.6537 124.154 65.6755 124.17 65.6916C124.186 65.7077 124.208 65.7167 124.231 65.7167H125.225L124.342 66.5995C124.326 66.6158 124.317 66.6376 124.317 66.6603C124.317 66.683 124.326 66.7049 124.342 66.7212C124.359 66.7366 124.38 66.7452 124.403 66.7452C124.426 66.7452 124.447 66.7366 124.464 66.7212L125.345 65.8384V66.8309C125.345 66.8536 125.354 66.8754 125.37 66.8915C125.387 66.9075 125.408 66.9166 125.431 66.9166C125.454 66.9166 125.476 66.9075 125.492 66.8915C125.508 66.8754 125.517 66.8536 125.517 66.8309V65.8384L126.4 66.7212C126.417 66.7366 126.438 66.7452 126.461 66.7452C126.484 66.7452 126.505 66.7366 126.522 66.7212C126.538 66.7049 126.547 66.683 126.547 66.6603C126.547 66.6376 126.538 66.6158 126.522 66.5995L125.639 65.7167H126.632C126.654 65.7167 126.676 65.7077 126.692 65.6916C126.708 65.6755 126.717 65.6537 126.717 65.631C126.716 65.6092 126.706 65.5887 126.691 65.5737C126.675 65.5587 126.654 65.5504 126.632 65.5504Z" fill="white"/>
<path d="M130.233 65.5504H129.24L130.123 64.6694C130.139 64.6531 130.148 64.6313 130.148 64.6086C130.148 64.5858 130.139 64.564 130.123 64.5477C130.115 64.5397 130.106 64.5333 130.095 64.5289C130.085 64.5246 130.074 64.5224 130.063 64.5224C130.051 64.5224 130.04 64.5246 130.03 64.5289C130.019 64.5333 130.01 64.5397 130.002 64.5477L129.118 65.4305V64.4363C129.118 64.4136 129.109 64.3918 129.093 64.3757C129.077 64.3596 129.055 64.3506 129.033 64.3506C129.01 64.351 128.988 64.3602 128.972 64.3762C128.957 64.3921 128.947 64.4137 128.947 64.4363V65.4305L128.065 64.5426C128.057 64.5345 128.048 64.5282 128.037 64.5238C128.027 64.5195 128.016 64.5172 128.004 64.5172C127.993 64.5172 127.982 64.5195 127.972 64.5238C127.961 64.5282 127.952 64.5345 127.944 64.5426C127.928 64.5589 127.919 64.5807 127.919 64.6034C127.919 64.6261 127.928 64.648 127.944 64.6643L128.827 65.5453H127.832C127.81 65.5457 127.788 65.5549 127.772 65.5709C127.756 65.5869 127.747 65.6084 127.746 65.631C127.746 65.6537 127.755 65.6755 127.772 65.6916C127.788 65.7077 127.809 65.7167 127.832 65.7167H128.827L127.944 66.5995C127.928 66.6158 127.919 66.6376 127.919 66.6603C127.919 66.683 127.928 66.7049 127.944 66.7212C127.96 66.7366 127.982 66.7452 128.004 66.7452C128.027 66.7452 128.049 66.7366 128.065 66.7212L128.947 65.8384V66.8309C128.947 66.8536 128.956 66.8754 128.972 66.8915C128.988 66.9075 129.01 66.9166 129.033 66.9166C129.055 66.9166 129.077 66.9075 129.093 66.8915C129.109 66.8754 129.118 66.8536 129.118 66.8309V65.8384L130.002 66.7212C130.018 66.7366 130.04 66.7452 130.063 66.7452C130.085 66.7452 130.107 66.7366 130.123 66.7212C130.139 66.7049 130.148 66.683 130.148 66.6603C130.148 66.6376 130.139 66.6158 130.123 66.5995L129.24 65.7167H130.233C130.256 65.7167 130.278 65.7077 130.294 65.6916C130.31 65.6755 130.319 65.6537 130.319 65.631C130.318 65.6092 130.308 65.5887 130.292 65.5737C130.276 65.5587 130.255 65.5504 130.233 65.5504Z" fill="white"/>
<path d="M157.843 86.4023C157.838 86.1951 157.813 85.9889 157.766 85.7869C157.612 85.2076 157.264 84.5065 156.691 84.3317C156.099 84.1507 155.528 83.9095 154.986 83.6118C154.883 81.7743 155.305 79.8939 154.845 78.113C154.674 77.4616 154.391 76.8377 154.315 76.1709C154.221 75.3413 154.448 74.4568 154.117 73.6923C153.856 73.0889 153.283 72.6638 152.667 72.441C152.052 72.2182 151.388 72.1582 150.735 72.0982C149.911 72.0313 147.246 71.716 146.317 72.4513C146.253 72.501 146.195 72.5586 146.145 72.6227V72.6227C146.125 72.651 146.106 72.6808 146.09 72.7118L146.082 72.7256C146.063 72.7613 146.048 72.7986 146.035 72.837V72.837C146.022 72.879 146.013 72.922 146.006 72.9655C146.006 72.9792 146.006 72.993 146.006 73.0067C146.006 73.0204 146.006 73.0667 146.006 73.0975V73.1438C146.006 73.1746 146.006 73.2055 146.006 73.2381C146.006 73.2706 146.006 73.2621 146.006 73.2741C146.018 73.4283 146.041 73.5826 146.041 73.7352C146.042 73.8111 146.035 73.887 146.02 73.9614C145.963 74.1636 145.866 74.3524 145.735 74.5168V74.5168L145.704 74.5613C145.685 74.5888 145.667 74.6145 145.649 74.6419C145.632 74.6693 145.619 74.6899 145.605 74.7139C145.591 74.7379 145.577 74.7533 145.565 74.7756C145.549 74.8039 145.534 74.833 145.521 74.863C145.521 74.8802 145.502 74.8956 145.495 74.9127C145.474 74.9591 145.456 75.0073 145.444 75.0567C145.404 75.2056 145.4 75.3621 145.433 75.5127C145.48 75.705 145.559 75.8877 145.668 76.0526C145.711 76.1229 145.758 76.1914 145.806 76.26L145.926 76.4229C145.903 76.5819 145.891 76.7422 145.89 76.9028C145.89 77.4396 146.012 77.9693 146.246 78.4521C146.481 78.9349 146.822 79.3581 147.244 79.6899C147.312 80.4138 147.305 81.1428 147.222 81.8651C147.207 82.0159 147.188 82.1685 147.167 82.3193C147.147 82.4702 147.131 82.5696 147.111 82.6947C146.86 82.7306 146.604 82.7113 146.361 82.6382C146.249 82.5882 146.135 82.5442 146.018 82.5062C145.519 82.381 145.01 82.8781 144.516 82.7273C144.516 82.7513 144.502 82.7736 144.494 82.7958C144.39 82.7318 144.272 82.6969 144.151 82.6947C143.857 82.681 143.619 82.4685 143.406 82.2679L142.753 81.6526C142.71 81.6149 142.672 81.5723 142.64 81.5257C142.605 81.4591 142.578 81.3882 142.561 81.3149C142.451 80.9601 142.185 80.6772 141.928 80.4081C141.879 80.3467 141.814 80.2999 141.741 80.2727C141.713 80.2684 141.684 80.2684 141.655 80.2727C141.638 80.2488 141.619 80.2259 141.599 80.2041C141.554 80.1532 141.507 80.1051 141.456 80.0602C141.144 79.7722 141.113 79.5254 140.842 79.2031C140.606 78.8958 140.392 78.5722 140.201 78.2346C140.179 78.0547 140.148 77.8695 140.11 77.6827C140.024 77.255 139.898 76.8361 139.734 76.4314L139.391 75.6721L139.352 75.7115C139.103 75.3413 138.837 75.139 138.599 75.187C138.199 75.2693 138.002 76.044 138.066 77.0571L138.203 78.0855C138.203 78.1112 138.215 78.1369 138.222 78.1627C138.197 78.2845 138.184 78.4085 138.184 78.5329C138.184 78.6769 138.318 78.7832 138.388 78.9117C138.501 79.0859 138.56 79.2889 138.56 79.4962C138.551 79.5699 138.529 79.6402 138.525 79.7122C138.535 79.8732 138.591 80.0281 138.687 80.1579L139.544 81.5977L139.716 81.8994L139.726 81.9131C139.78 82.0184 139.859 82.1089 139.956 82.1771C139.989 82.5376 140.085 82.8896 140.239 83.2175C140.268 83.2827 140.3 83.3444 140.335 83.4061C140.565 83.7848 140.837 84.1372 141.144 84.4568L141.552 84.9145C141.955 85.3636 142.358 85.8144 142.796 86.2292C142.952 86.3956 143.141 86.5281 143.351 86.6183C143.454 86.6594 143.566 86.6726 143.676 86.6567C143.785 86.6407 143.889 86.5961 143.976 86.5274C143.976 86.74 143.976 86.9525 143.976 87.1651C144.039 87.169 144.101 87.1898 144.154 87.2254C144.207 87.261 144.249 87.3101 144.277 87.3676C144.304 87.425 144.316 87.4888 144.311 87.5524C144.306 87.6159 144.283 87.6769 144.247 87.729C143.886 88.6529 143.523 89.5854 142.977 90.4133C143.362 90.641 143.719 90.9131 144.041 91.224C144.249 91.4551 144.435 91.706 144.595 91.9731C144.61 92.1 144.622 92.2251 144.629 92.3502C144.756 94.3934 143.965 96.4212 143.257 98.3684C143.053 98.9203 142.83 99.498 142.847 100.072C142.713 100.155 142.584 100.247 142.463 100.348C142.604 100.715 142.549 101.042 142.533 101.435C142.528 101.67 142.48 101.903 142.391 102.121C142.316 102.272 142.234 102.419 142.144 102.561C141.7 103.344 141.602 104.275 141.513 105.17C141.46 105.71 141.669 106.37 141.424 106.853C141 107.683 140.624 108.567 140.566 109.489C140.564 109.697 140.538 109.903 140.487 110.105C140.434 110.276 140.34 110.422 140.292 110.59C140.242 110.815 140.231 111.047 140.257 111.276C140.29 112.097 140.168 112.918 139.897 113.694C139.683 114.306 139.446 114.961 139.614 115.59C139.201 116.024 138.945 116.585 138.889 117.182C138.884 117.335 138.866 117.487 138.834 117.637C138.782 117.789 138.713 117.936 138.628 118.074C138.283 118.702 138.121 119.415 138.162 120.131C137.647 120.828 137.39 121.689 137.237 122.544C137.085 123.399 137.018 124.27 136.822 125.115C136.562 126.233 136.09 127.362 135.997 128.507C135.442 128.862 135.202 129.549 135.095 130.199C134.989 130.849 134.972 131.531 134.699 132.131C134.558 132.443 134.356 132.722 134.222 133.041C134.129 133.295 134.06 133.557 134.017 133.824C133.934 134.243 133.862 134.709 133.963 135.11C133.818 135.264 133.648 135.393 133.461 135.492C133.488 135.386 133.511 135.28 133.529 135.172C133.087 135.573 132.284 135.432 131.931 135.914C131.825 136.069 131.784 136.26 131.816 136.445C131.848 136.63 131.951 136.796 132.103 136.906C132.213 136.974 132.333 137.025 132.458 137.059C133.315 137.333 134.197 137.609 135.078 137.463C135.182 137.452 135.283 137.42 135.375 137.369C135.489 137.285 135.584 137.176 135.651 137.05C135.783 136.841 135.915 136.632 136.045 136.423C136.361 136.517 136.683 136.592 137.008 136.648C137.04 136.922 137.064 137.196 137.076 137.47C137.248 137.505 137.477 137.515 137.558 137.355C137.582 137.295 137.592 137.23 137.587 137.165C137.587 137.043 137.604 136.882 137.615 136.718H137.649C138.172 136.739 138.693 136.634 139.167 136.411C138.983 134.892 139.589 133.408 140.113 131.971C140.667 130.46 141.142 128.92 141.621 127.381C141.964 126.298 142.343 125.249 142.679 124.164C143.102 122.793 143.527 121.421 143.953 120.05C144.139 119.447 144.325 118.85 144.538 118.25C144.986 117.036 145.517 115.855 146.128 114.714C146.299 114.39 146.471 114.069 146.612 113.734C146.783 113.324 146.905 112.895 147.042 112.472C147.341 111.603 147.701 110.757 148.119 109.939C148.131 109.916 148.14 109.896 148.152 109.875C148.291 110.442 148.43 111.018 148.522 111.589C148.647 112.289 148.657 113.005 148.551 113.708C148.469 114.186 148.313 114.659 148.332 115.144C148.357 115.814 148.716 116.423 148.893 117.069C149.006 117.553 149.071 118.047 149.085 118.543C149.133 119.315 149.551 120.18 149.256 120.895C148.339 123.159 148.783 125.717 148.26 128.094C147.99 129.315 147.166 130.461 147.231 131.709C147.276 132.595 147.354 133.478 147.464 134.359C147.49 134.637 147.563 134.909 147.678 135.163C147.747 135.297 147.825 135.425 147.913 135.547C147.838 135.576 147.774 135.653 147.72 135.816C147.579 136.245 147.72 136.776 148.1 137.016C148.255 137.099 148.423 137.157 148.596 137.187C148.829 137.254 149.07 137.287 149.313 137.287C149.388 137.283 149.463 137.274 149.537 137.259C149.803 137.371 150.073 137.468 150.349 137.551C150.349 137.621 150.362 137.691 150.371 137.762C150.371 137.798 150.38 137.835 150.395 137.868C150.41 137.901 150.432 137.931 150.46 137.955C150.503 137.975 150.55 137.984 150.597 137.979H151.529C151.529 137.902 151.529 137.823 151.529 137.746C151.635 137.757 151.743 137.746 151.845 137.713C151.947 137.68 152.041 137.626 152.12 137.554C152.203 137.449 152.261 137.328 152.292 137.198C152.546 136.337 152.798 135.476 153.048 134.615C153.348 133.662 153.473 132.663 153.417 131.666C153.086 128.507 153.813 125.338 153.576 122.17C153.434 120.266 153.532 118.352 153.868 116.473C153.945 116.048 154.039 115.616 154.074 115.192C154.149 114.393 154.056 113.586 154.113 112.792C154.132 112.515 154.17 112.239 154.204 111.963C154.439 110.25 154.562 108.524 154.573 106.795C154.567 106.222 154.532 105.65 154.466 105.081C154.645 105.035 154.807 104.94 154.935 104.807C155.087 104.608 155.048 104.328 155.046 104.075C155.046 103.468 155.302 102.895 155.507 102.323C155.772 101.533 155.988 100.728 156.156 99.9128C156.333 99.2555 156.43 98.5793 156.444 97.8987C156.444 97.8302 156.44 97.7616 156.434 97.693C156.498 97.6483 156.552 97.5897 156.591 97.5216C156.636 97.4212 156.664 97.314 156.674 97.2045C156.735 96.7674 156.799 96.3286 156.861 95.8898C156.906 95.5756 156.951 95.2619 156.996 94.9488L157.541 91.1452C157.588 90.8144 157.636 90.4853 157.682 90.1562L157.824 89.1723C157.84 89.0557 157.857 88.9392 157.869 88.8295C158.287 88.1301 157.888 87.1976 157.843 86.4023ZM153.293 100.643C153.091 100.163 152.902 99.6711 152.95 99.1534H152.931C152.977 98.9942 152.969 98.8245 152.909 98.6701C152.856 98.5449 152.763 98.4387 152.707 98.3135C152.646 98.1608 152.615 97.998 152.614 97.8336C152.572 96.7911 152.654 95.7472 152.859 94.7242C152.882 94.6042 152.906 94.4825 152.928 94.3625C153 94.321 153.066 94.2697 153.124 94.21C153.214 94.1072 153.288 93.9917 153.345 93.8672C153.539 93.4781 153.715 93.0821 153.878 92.6793C153.931 92.549 154.008 92.3982 154.141 92.3656C154.113 93.3684 154.216 94.3917 153.808 95.2967C153.73 95.4427 153.673 95.5983 153.636 95.7595C153.599 96.0149 153.705 96.2738 153.667 96.5274C153.648 96.6594 153.592 96.7811 153.569 96.9114C153.552 96.9754 153.553 97.0427 153.57 97.1065C153.588 97.1703 153.622 97.2284 153.669 97.2748C153.692 97.2907 153.716 97.3034 153.743 97.3125C153.732 97.3811 153.724 97.4514 153.717 97.5182C153.703 97.6588 153.696 97.7907 153.688 97.873C153.648 98.2923 153.633 98.7135 153.641 99.1346C153.641 99.5888 153.659 100.043 153.652 100.506C153.658 100.639 153.636 100.771 153.587 100.895C153.553 100.959 153.509 101.017 153.456 101.066C153.407 100.912 153.352 100.777 153.293 100.643Z" fill="url(#paint0_linear_14_31)"/>
<path d="M139.755 80.7543C140.279 80.6471 140.457 79.3596 140.153 77.8785C139.849 76.3975 139.179 75.2837 138.656 75.3909C138.132 75.4981 137.954 76.7856 138.258 78.2667C138.562 79.7477 139.232 80.8615 139.755 80.7543Z" fill="#FBBEBE"/>
<path d="M147.747 135.849C147.606 136.274 147.747 136.805 148.128 137.037C148.282 137.119 148.448 137.177 148.62 137.208C148.853 137.274 149.093 137.307 149.335 137.306C149.632 137.292 149.916 137.176 150.213 137.134C150.247 137.126 150.284 137.131 150.314 137.148C150.329 137.164 150.34 137.183 150.347 137.204C150.353 137.225 150.355 137.247 150.352 137.268C150.355 137.437 150.368 137.605 150.39 137.772C150.39 137.809 150.398 137.845 150.413 137.879C150.429 137.912 150.451 137.942 150.479 137.966C150.522 137.986 150.569 137.994 150.616 137.99H151.546C151.567 137.174 151.477 136.358 151.28 135.566C151.267 135.505 151.244 135.447 151.211 135.395C151.132 135.308 151.029 135.248 150.915 135.223C150.687 135.129 150.442 135.086 150.196 135.098C149.896 135.138 149.645 135.331 149.39 135.492C149.134 135.653 148.786 135.796 148.476 135.713C148.165 135.631 147.906 135.372 147.747 135.849Z" fill="#3F3D56"/>
<path d="M134.099 135.097C133.837 135.376 133.517 135.594 133.161 135.735L133.003 135.81C132.981 135.818 132.962 135.833 132.95 135.853C132.947 135.866 132.947 135.88 132.95 135.893C132.953 135.907 132.958 135.919 132.967 135.93C133.098 136.133 133.292 136.288 133.519 136.37C133.747 136.453 133.995 136.459 134.226 136.388C134.328 136.362 134.422 136.313 134.502 136.244C134.633 136.089 134.707 135.894 134.714 135.692C134.766 135.483 134.757 135.263 134.689 135.059C134.45 134.522 134.363 134.766 134.099 135.097Z" fill="#FBBEBE"/>
<path d="M137.663 137.208C137.668 137.273 137.658 137.338 137.633 137.398C137.553 137.556 137.328 137.547 137.153 137.513C137.127 136.932 137.056 136.353 136.942 135.782C136.61 135.766 136.369 136.082 136.191 136.365L135.731 137.093C135.665 137.219 135.571 137.328 135.457 137.412C135.365 137.462 135.264 137.494 135.16 137.506C134.282 137.652 133.396 137.376 132.548 137.102C132.424 137.068 132.304 137.017 132.193 136.951C132.042 136.84 131.94 136.675 131.908 136.49C131.876 136.305 131.917 136.115 132.022 135.96C132.377 135.48 133.174 135.617 133.617 135.22C133.571 135.499 133.495 135.774 133.39 136.037C133.982 135.948 134.38 135.407 134.857 135.045C134.977 134.943 135.121 134.875 135.275 134.846C135.391 134.836 135.507 134.849 135.618 134.882C136.168 135.02 136.682 135.273 137.127 135.624C137.308 135.766 137.589 135.967 137.668 136.186C137.752 136.449 137.663 136.929 137.663 137.208Z" fill="#3F3D56"/>
<path d="M149.46 80.6532C151.417 80.6532 153.003 79.0677 153.003 77.1119C153.003 75.1561 151.417 73.5706 149.46 73.5706C147.503 73.5706 145.917 75.1561 145.917 77.1119C145.917 79.0677 147.503 80.6532 149.46 80.6532Z" fill="#FBBEBE"/>
<path d="M156.44 98.0205C156.426 98.6975 156.33 99.3703 156.154 100.024C155.986 100.836 155.77 101.638 155.506 102.424C155.302 102.995 155.046 103.567 155.048 104.172C155.048 104.424 155.089 104.704 154.935 104.903C154.797 105.042 154.624 105.141 154.434 105.189C154.339 105.214 154.251 105.261 154.178 105.326C154.105 105.391 154.048 105.473 154.012 105.564C153.851 105.324 153.73 105.059 153.655 104.779C153.348 103.838 153.062 102.891 152.798 101.939C152.773 101.884 152.763 101.824 152.767 101.765C152.771 101.705 152.79 101.647 152.822 101.596C152.865 101.558 152.916 101.53 152.971 101.512C153.147 101.44 153.308 101.337 153.446 101.207C153.511 101.149 153.564 101.08 153.604 101.003C153.654 100.88 153.676 100.748 153.671 100.616C153.671 100.161 153.671 99.7089 153.659 99.2546C153.651 98.8353 153.667 98.4158 153.707 97.9982C153.707 97.9159 153.722 97.7839 153.736 97.6434C153.762 97.3743 153.813 97.0623 153.959 96.9577C154.177 96.812 154.828 97.0074 155.075 97.0417C155.501 97.1 155.933 97.1686 156.348 97.2491C156.408 97.5019 156.439 97.7607 156.44 98.0205Z" fill="#3F3D56"/>
<path d="M142.134 81.0767C141.996 81.351 141.667 81.4829 141.413 81.6561L140.544 82.2526C140.486 82.3049 140.418 82.3449 140.344 82.3703C140.27 82.3956 140.191 82.4057 140.113 82.4C140.043 82.3739 139.978 82.3339 139.923 82.2824C139.868 82.2308 139.823 82.1688 139.793 82.1C139.793 82.0955 139.793 82.0908 139.793 82.0863L139.613 81.7846L138.755 80.3482C138.66 80.2196 138.604 80.0658 138.596 79.906C138.596 79.8323 138.621 79.7637 138.628 79.69C138.631 79.483 138.571 79.28 138.457 79.1072C138.388 78.9786 138.251 78.8724 138.254 78.7284C138.248 78.5392 138.281 78.3507 138.35 78.1747C138.44 78.012 138.569 77.8741 138.726 77.7736C138.807 77.7154 138.889 77.6605 138.975 77.6022C139.02 77.5712 139.071 77.548 139.124 77.5337C139.266 77.5045 139.407 77.6228 139.551 77.6279C140.17 78.0427 140.408 78.8278 140.895 79.3935C141.17 79.7157 141.197 79.9625 141.508 80.2505C141.557 80.2951 141.605 80.3431 141.652 80.3928C141.713 80.4597 141.765 80.5346 141.806 80.6156C141.863 80.763 142.204 80.9361 142.134 81.0767Z" fill="#3F3D56"/>
<path d="M148.215 80.655C148.471 81.1949 148.67 81.788 148.596 82.3811C148.581 82.5417 148.53 82.6969 148.447 82.8353C148.2 83.2141 147.682 83.2827 147.231 83.305C147.136 83.297 147.04 83.308 146.949 83.3375C146.859 83.3669 146.775 83.4141 146.702 83.4764C146.642 83.5639 146.613 83.669 146.619 83.775C146.624 83.8811 146.665 83.9823 146.735 84.0626C146.88 84.2172 147.06 84.3348 147.26 84.4054C147.973 84.7191 148.743 84.9779 149.519 84.9059C149.879 84.8716 150.229 84.7671 150.587 84.7139C150.978 84.6717 151.37 84.6499 151.763 84.6488C152.23 84.6317 152.695 84.5854 153.159 84.5391L154.391 84.4174C154.458 84.4184 154.523 84.3946 154.574 84.3506C154.665 84.2443 154.549 84.0883 154.435 84.0077C153.782 83.5244 152.95 83.1918 152.578 82.4651C152.407 82.1222 152.353 81.7143 152.227 81.344C152.1 80.9738 151.897 80.6395 151.818 80.2624C151.776 79.9316 151.757 79.5983 151.762 79.2648C151.766 78.9286 151.644 78.6031 151.419 78.3529C151.173 78.125 150.818 78.0667 150.486 78.053C149.666 78.017 148.793 78.2124 148.212 78.79C148.056 78.946 147.922 79.1328 147.761 79.2734C147.599 79.414 147.38 79.4551 147.486 79.6402C147.593 79.8253 147.802 79.9402 147.915 80.103C148.03 80.2787 148.13 80.4633 148.215 80.655V80.655Z" fill="#FBBEBE"/>
<path d="M155.2 85.6412C154.984 86.9611 154.632 88.2552 154.151 89.503C153.909 90.0665 153.702 90.6447 153.533 91.2343C153.401 91.7656 153.427 92.3347 153.305 92.8678C153.154 93.5311 153.003 94.1962 152.882 94.8647C152.677 95.8855 152.596 96.927 152.638 97.9672C152.639 98.131 152.67 98.2933 152.731 98.4454C152.787 98.5689 152.878 98.6751 152.931 98.802C152.971 98.9134 152.987 99.0318 152.979 99.1498C152.971 99.2678 152.938 99.3828 152.883 99.4876C152.795 99.6838 152.676 99.8644 152.53 100.022C150.932 100.499 149.222 100.343 147.557 100.444C146.022 100.537 144.469 100.852 142.957 100.59C142.785 99.9041 143.072 99.1859 143.317 98.5174C144.029 96.5754 144.816 94.5527 144.689 92.5181C144.676 92.2808 144.649 92.0444 144.608 91.8102C144.36 90.3686 144.631 88.8757 145.065 87.4787C145.334 86.6079 145.322 85.6806 145.26 84.7739C145.23 84.4794 145.226 84.1828 145.248 83.8877C145.273 83.5863 145.385 83.2986 145.571 83.0598C145.571 83.0478 145.586 83.0358 145.595 83.0238C145.603 83.0118 145.67 83.0135 145.723 83.0238C145.737 83.0295 145.751 83.0325 145.766 83.0325C145.781 83.0325 145.795 83.0295 145.809 83.0238L145.828 83.0118C145.835 83.0066 145.844 83.0038 145.853 83.0038C145.862 83.0038 145.87 83.0066 145.878 83.0118C145.917 83.0358 145.939 83.118 146.025 83.1335C146.152 83.1526 146.279 83.1646 146.407 83.1695C146.561 83.174 146.715 83.1959 146.864 83.2346H146.884C147.107 83.2722 147.336 83.2527 147.55 83.178C147.692 83.1426 147.829 83.0896 147.958 83.0203C147.996 82.9792 148.232 82.9415 148.28 82.9123C148.436 82.8181 148.402 82.3758 148.435 82.1941C148.453 82.0119 148.496 81.8331 148.563 81.6628C148.641 81.5371 148.749 81.4325 148.877 81.358C149.005 81.2836 149.149 81.2417 149.297 81.236C149.593 81.2289 149.888 81.2554 150.177 81.3148C150.817 81.4057 151.472 81.3902 152.1 81.5377C152.415 81.6114 152.76 81.7228 153.05 81.5788C153.129 81.5976 153.141 81.6662 153.141 81.7502C153.133 81.83 153.117 81.9087 153.093 81.985C152.983 82.4581 153.355 82.8935 153.698 83.2363C153.843 83.3979 154.014 83.5341 154.204 83.6391C154.375 83.718 154.547 83.7505 154.718 83.8362C154.857 83.9103 154.975 84.0182 155.061 84.1499C155.16 84.301 155.227 84.4708 155.257 84.6487C155.294 84.9804 155.275 85.3159 155.2 85.6412Z" fill="#3F3D56"/>
<path opacity="0.1" d="M155.2 85.6413C154.984 86.9612 154.632 88.2553 154.151 89.5031C153.909 90.0666 153.702 90.6449 153.533 91.2344C153.401 91.7657 153.427 92.3348 153.305 92.8679C153.154 93.5312 153.003 94.1963 152.882 94.8648C152.846 94.8854 152.808 94.9042 152.77 94.9214C152.557 95.0232 152.331 95.0959 152.098 95.1374C151.68 95.1879 151.256 95.174 150.843 95.0962L148.395 94.7688C147.418 94.6368 146.377 94.4774 145.651 93.8158C145.248 93.4524 144.984 92.9725 144.694 92.5096C144.681 92.2723 144.654 92.036 144.614 91.8017C144.365 90.3602 144.636 88.8672 145.07 87.4702C145.339 86.5995 145.327 85.6721 145.265 84.7654C145.235 84.4709 145.231 84.1744 145.253 83.8792C145.278 83.5778 145.39 83.2901 145.576 83.0513C145.626 83.0366 145.677 83.0252 145.728 83.017V83.017C145.763 83.01 145.798 83.0054 145.833 83.0033H145.883C145.941 83.0035 145.998 83.0104 146.054 83.0239C146.171 83.061 146.286 83.1051 146.397 83.1559H146.418C146.565 83.2043 146.719 83.2263 146.874 83.221C147.1 83.221 147.334 83.185 147.56 83.1696C147.84 83.1259 148.126 83.1772 148.373 83.3153C148.532 83.4433 148.684 83.5813 148.826 83.7284C148.997 83.8631 149.19 83.9679 149.397 84.0386C150.873 84.6018 152.511 84.5674 153.962 83.9426C154.102 83.8634 154.26 83.8231 154.42 83.8261C154.539 83.8492 154.651 83.8971 154.749 83.9666C154.852 84.0266 154.953 84.0849 155.058 84.138C155.157 84.289 155.223 84.4589 155.254 84.6368C155.293 84.9722 155.275 85.3119 155.2 85.6413V85.6413Z" fill="black"/>
<path d="M156.694 84.5065C156.011 84.298 155.355 84.0104 154.739 83.6495C154.64 83.5805 154.528 83.5326 154.41 83.5089C154.249 83.507 154.09 83.5472 153.95 83.6255C152.499 84.2501 150.862 84.2846 149.386 83.7215C149.18 83.6501 148.987 83.5453 148.815 83.4112C148.673 83.2646 148.522 83.1267 148.363 82.9981C147.798 82.633 147.018 83.0615 146.387 82.8267C146.275 82.7767 146.16 82.7327 146.044 82.6947C145.545 82.5696 145.037 83.0667 144.547 82.9158C144.364 83.4116 144.229 83.9236 144.144 84.4448C144.074 85.0434 144.037 85.6454 144.032 86.2481C144.032 86.6097 144.015 86.9714 144.032 87.3331C144.093 87.343 144.15 87.3653 144.202 87.3986C144.253 87.432 144.297 87.4756 144.331 87.5268C144.353 87.5865 144.362 87.6504 144.358 87.7141C144.353 87.7777 144.334 87.8396 144.303 87.8953C143.945 88.8158 143.581 89.7465 143.037 90.571C143.421 90.7992 143.776 91.0707 144.097 91.3801C144.698 92.0143 144.993 92.9039 145.641 93.4901C146.371 94.15 147.412 94.3112 148.385 94.4414L150.832 94.7688C151.247 94.8464 151.67 94.8608 152.089 94.8117C152.321 94.7693 152.547 94.6961 152.76 94.594C152.899 94.5359 153.026 94.4522 153.134 94.3472C153.224 94.2446 153.299 94.129 153.355 94.0043C153.549 93.617 153.725 93.221 153.888 92.8199C153.945 92.6776 154.031 92.5114 154.185 92.4994C155.094 91.68 155.951 90.8401 156.86 90.0208C157.226 89.7182 157.553 89.3729 157.836 88.9923C158.287 88.3255 157.877 87.3811 157.836 86.5754C157.831 86.3694 157.805 86.1644 157.759 85.9635C157.612 85.379 157.265 84.6796 156.694 84.5065Z" fill="white"/>
<path opacity="0.1" d="M142.134 81.0766C141.996 81.3509 141.667 81.4829 141.413 81.656L140.544 82.2525C140.486 82.3048 140.418 82.3449 140.344 82.3702C140.27 82.3955 140.191 82.4056 140.113 82.3999C140.043 82.3738 139.978 82.3338 139.923 82.2823C139.868 82.2308 139.823 82.1688 139.793 82.1C139.793 82.0605 139.793 82.0177 139.793 81.9765C139.786 81.8378 139.805 81.699 139.848 81.5669C139.933 81.373 140.065 81.2034 140.232 81.0732C140.555 80.7676 140.939 80.5339 141.358 80.3876C141.424 80.3621 141.495 80.355 141.564 80.367C141.591 80.374 141.616 80.3849 141.64 80.3996C141.701 80.4665 141.753 80.5414 141.794 80.6224C141.863 80.763 142.204 80.9361 142.134 81.0766Z" fill="black"/>
<path d="M144.181 82.8833C143.89 82.8696 143.651 82.6587 143.439 82.4582L142.789 81.8548C142.745 81.8181 142.707 81.7754 142.676 81.728C142.64 81.6613 142.614 81.5905 142.597 81.5171C142.459 81.1709 142.243 80.8612 141.966 80.6121C141.917 80.5507 141.852 80.5043 141.779 80.4784C141.709 80.4655 141.637 80.4727 141.571 80.499C141.151 80.6451 140.767 80.8788 140.444 81.1846C140.277 81.3149 140.145 81.4845 140.06 81.6783C140.017 81.8103 139.998 81.9492 140.005 82.0879C140.009 82.5408 140.111 82.9875 140.304 83.3975C140.333 83.4609 140.365 83.5243 140.4 83.586C140.629 83.964 140.899 84.3153 141.206 84.6334L141.614 85.0893C142.015 85.5384 142.417 85.9875 142.852 86.4006C143.008 86.5671 143.198 86.699 143.408 86.788C143.513 86.831 143.629 86.8442 143.741 86.8261C143.854 86.8079 143.959 86.7592 144.046 86.6851C144.128 86.5901 144.19 86.4793 144.228 86.3595C144.492 85.6738 144.742 84.9608 144.758 84.222C144.761 83.9261 144.749 83.6303 144.72 83.3358C144.694 83.0238 144.473 82.9021 144.181 82.8833Z" fill="white"/>
<path d="M154.574 106.881C154.564 108.605 154.442 110.327 154.207 112.035C154.173 112.311 154.135 112.587 154.116 112.863C154.06 113.663 154.153 114.467 154.077 115.262C154.038 115.693 153.948 116.12 153.873 116.539C153.538 118.414 153.44 120.323 153.581 122.222C153.818 125.381 153.093 128.542 153.422 131.692C153.462 132.305 153.428 132.92 153.321 133.524C153.259 133.9 153.17 134.27 153.055 134.632C152.804 135.49 152.553 136.347 152.3 137.203C152.271 137.333 152.212 137.455 152.129 137.559C152.041 137.635 151.939 137.691 151.828 137.724C151.717 137.757 151.6 137.766 151.486 137.75C150.496 137.719 149.565 137.292 148.666 136.876C148.563 136.835 148.467 136.777 148.383 136.704C148.196 136.51 148.212 136.205 148.129 135.95C148.047 135.695 147.824 135.455 147.697 135.192C147.593 134.944 147.53 134.681 147.51 134.412C147.396 133.535 147.318 132.654 147.277 131.769C147.212 130.525 148.035 129.38 148.306 128.17C148.821 125.79 148.385 123.24 149.299 120.982C149.587 120.269 149.169 119.405 149.128 118.638C149.113 118.142 149.048 117.649 148.935 117.167C148.764 116.522 148.402 115.916 148.376 115.247C148.357 114.764 148.514 114.292 148.594 113.816C148.701 113.115 148.691 112.4 148.565 111.702C148.474 111.126 148.335 110.55 148.196 109.988L148.165 110.052C147.748 110.868 147.388 111.713 147.09 112.58C146.953 113 146.833 113.428 146.661 113.836C146.521 114.179 146.347 114.493 146.178 114.815C145.569 115.952 145.039 117.128 144.591 118.338C144.379 118.931 144.192 119.537 144.006 120.132L142.736 124.246C142.393 125.328 142.017 126.373 141.681 127.453C141.206 128.996 140.731 130.525 140.179 132.033C139.664 133.464 139.052 134.947 139.235 136.459C138.762 136.681 138.243 136.786 137.721 136.766C136.837 136.688 135.97 136.477 135.148 136.142C134.821 136.02 134.481 135.883 134.26 135.614C133.879 135.149 133.974 134.469 134.089 133.878C134.132 133.611 134.201 133.349 134.294 133.096C134.425 132.781 134.637 132.501 134.771 132.189C135.04 131.591 135.058 130.914 135.164 130.264C135.27 129.615 135.507 128.929 136.062 128.576C136.157 127.434 136.627 126.308 136.886 125.192C137.081 124.347 137.146 123.478 137.301 122.621C137.455 121.764 137.704 120.907 138.222 120.213C138.181 119.497 138.343 118.784 138.688 118.156C138.772 118.018 138.84 117.871 138.892 117.719C138.924 117.57 138.943 117.418 138.947 117.266C139.004 116.671 139.259 116.111 139.671 115.677C139.499 115.052 139.738 114.399 139.952 113.792C140.222 113.018 140.344 112.199 140.312 111.38C140.286 111.151 140.297 110.92 140.345 110.694C140.393 110.523 140.487 110.377 140.542 110.213C140.591 110.011 140.617 109.805 140.619 109.597C140.686 108.67 141.062 107.796 141.477 106.968C141.724 106.485 141.515 105.828 141.566 105.29C141.655 104.395 141.753 103.47 142.197 102.69C142.279 102.542 142.369 102.402 142.442 102.249C142.532 102.031 142.58 101.799 142.585 101.563C142.6 101.171 142.655 100.845 142.514 100.48C143.432 99.7174 144.684 99.5031 145.878 99.4517C147.071 99.4003 148.279 99.5083 149.446 99.2546C149.789 99.1774 150.132 99.0712 150.494 99.0197C151.316 98.8998 152.149 99.0866 152.961 99.2717C152.904 99.7859 153.093 100.28 153.304 100.758C154.127 102.695 154.559 104.776 154.574 106.881V106.881Z" fill="#33313F"/>
<path opacity="0.1" d="M150.536 107.273L148.565 111.702C148.474 111.126 148.335 110.551 148.196 109.988L148.165 110.052V109.959L149.239 107.599L150.536 107.273Z" fill="black"/>
<path opacity="0.1" d="M156.44 98.0211C156.327 98.1061 156.191 98.1567 156.049 98.1669C155.832 98.1746 155.615 98.145 155.408 98.0794L153.864 97.6935C153.816 97.6816 153.769 97.6649 153.724 97.6438C153.749 97.3745 153.801 97.0624 153.947 96.9578C154.164 96.812 154.816 97.0075 155.063 97.0418C155.488 97.1001 155.921 97.1687 156.336 97.2493C156.4 97.5017 156.435 97.7607 156.44 98.0211V98.0211Z" fill="black"/>
<path d="M157.745 87.8216C157.778 87.9639 157.824 88.1044 157.852 88.2484C157.898 88.6017 157.886 88.9601 157.816 89.3094L157.675 90.2899L157.534 91.2755L156.991 95.0688L156.857 96.0081L156.668 97.3194C156.659 97.4285 156.632 97.5352 156.586 97.6348C156.53 97.7279 156.451 97.8057 156.358 97.8611C156.264 97.9164 156.158 97.9476 156.049 97.9519C155.832 97.9588 155.615 97.9292 155.408 97.8645L153.864 97.4771C153.797 97.4651 153.732 97.4388 153.676 97.4C153.629 97.3539 153.594 97.2961 153.577 97.2326C153.56 97.169 153.559 97.102 153.576 97.0383C153.599 96.908 153.655 96.7863 153.674 96.656C153.712 96.4023 153.605 96.1418 153.643 95.8898C153.68 95.7294 153.738 95.5744 153.815 95.4287C154.329 94.2923 154.031 92.9656 154.206 91.7315C154.363 90.7601 154.774 89.8474 155.396 89.0849C155.78 88.6036 156.221 88.1708 156.71 87.7959C156.902 87.6468 157.207 87.3399 157.449 87.2817C157.759 87.2165 157.694 87.6056 157.745 87.8216Z" fill="white"/>
<path d="M146.064 73.0564C145.951 73.4164 146.128 73.8123 146.047 74.1791C145.96 74.5837 145.579 74.8648 145.471 75.271C145.3 75.8898 145.824 76.4538 146.208 76.968C147.632 78.8775 147.445 81.5206 146.958 83.8501C146.566 85.719 146.024 87.5533 145.337 89.3352C145.123 89.8889 144.886 90.4511 144.464 90.8659C145.253 90.6396 146.092 90.4117 146.882 90.6311C147.884 90.9088 148.748 91.8807 149.764 91.6595C150.374 91.5241 150.803 90.9825 151.352 90.6825C152.381 90.1288 153.621 90.4768 154.768 90.6551C155.015 90.7134 155.274 90.7003 155.514 90.6174C155.698 90.5187 155.853 90.3755 155.967 90.2008C156.479 89.5443 156.786 88.7512 156.848 87.9211C156.876 87.5077 156.815 87.0933 156.669 86.7053C156.524 86.3173 156.298 85.9646 156.006 85.6705C155.763 85.4408 155.471 85.2557 155.284 84.9848C155.103 84.6685 155.005 84.3108 155.001 83.9461C154.866 82.0606 155.326 80.1356 154.852 78.3118C154.681 77.6622 154.401 77.04 154.326 76.3749C154.231 75.547 154.456 74.6608 154.127 73.9032C153.868 73.3015 153.297 72.8747 152.681 72.6553C152.065 72.4359 151.407 72.3742 150.753 72.3125C149.813 72.2336 146.457 71.8308 146.064 73.0564Z" fill="#33313F"/>
<g opacity="0.1">
<path opacity="0.1" d="M146.958 83.8501C146.568 85.7113 146.029 87.5381 145.346 89.3129C145.464 89.0781 145.564 88.8313 145.658 88.5862C146.346 86.8046 146.888 84.9702 147.279 83.1011C147.768 80.7699 147.954 78.1302 146.531 76.219C146.188 75.7631 145.747 75.2694 145.763 74.7346C145.636 74.8964 145.537 75.0783 145.471 75.2728C145.3 75.8916 145.824 76.4556 146.209 76.9698C147.632 78.8776 147.445 81.5207 146.958 83.8501Z" fill="black"/>
<path opacity="0.1" d="M146.068 74.0068C146.205 73.8359 146.308 73.6395 146.37 73.4288C146.396 73.1741 146.389 72.9169 146.349 72.6639C146.217 72.7634 146.118 72.9002 146.064 73.0567C145.963 73.3602 146.08 73.6895 146.068 74.0068Z" fill="black"/>
<path opacity="0.1" d="M156.289 89.4466C156.176 89.6208 156.02 89.7635 155.837 89.8614C155.597 89.9461 155.338 89.9592 155.091 89.8991C153.943 89.7277 152.69 89.3746 151.674 89.9283C151.124 90.2265 150.697 90.7682 150.084 90.9053C149.071 91.1316 148.206 90.1597 147.205 89.8768C146.495 89.6797 145.747 89.8426 145.032 90.0483C144.89 90.3511 144.698 90.6281 144.464 90.8676C145.253 90.6413 146.092 90.4134 146.882 90.6328C147.884 90.9105 148.748 91.8823 149.764 91.6612C150.374 91.5258 150.803 90.9842 151.352 90.6842C152.381 90.1305 153.621 90.4785 154.768 90.6568C155.015 90.7151 155.274 90.702 155.514 90.6191C155.698 90.5204 155.853 90.3772 155.967 90.2025C156.278 89.7928 156.518 89.3339 156.677 88.845C156.562 89.0545 156.433 89.2556 156.289 89.4466Z" fill="black"/>
</g>
</g>
<defs>
<linearGradient id="paint0_linear_14_31" x1="131.816" y1="104.975" x2="158.056" y2="104.975" gradientUnits="userSpaceOnUse">
<stop stop-color="#808080" stop-opacity="0.25"/>
<stop offset="0.54" stop-color="#808080" stop-opacity="0.12"/>
<stop offset="1" stop-color="#808080" stop-opacity="0.1"/>
</linearGradient>
<clipPath id="clip0_14_31">
<rect width="200" height="138" fill="white"/>
</clipPath>
</defs>
</svg>
