<svg width="200" height="156" viewBox="0 0 200 156" fill="none" xmlns="http://www.w3.org/2000/svg">
<g clip-path="url(#clip0_14_216)">
<path d="M176.211 145.079C176.197 145.015 174.787 138.573 177.666 133.222C180.545 127.872 186.689 125.512 186.751 125.489L187.032 125.384L187.098 125.677C187.113 125.741 188.523 132.183 185.644 137.534C182.765 142.884 176.62 145.244 176.558 145.267L176.277 145.372L176.211 145.079ZM186.647 126.099C185.416 126.63 180.558 128.952 178.127 133.471C175.695 137.991 176.429 143.335 176.663 144.657C177.893 144.127 182.749 141.808 185.183 137.285C187.614 132.766 186.881 127.422 186.647 126.099Z" fill="#3F3D56"/>
<path d="M183.444 135.657C178.271 138.776 176.278 144.972 176.278 144.972C176.278 144.972 182.673 146.11 187.846 142.991C193.02 139.872 195.012 133.676 195.012 133.676C195.012 133.676 188.617 132.538 183.444 135.657Z" fill="#D0CDE1"/>
<path d="M71.0462 116.888C70.431 116.888 69.8096 116.878 69.1996 116.859L69.2135 116.415C70.0894 116.442 70.9832 116.45 71.8632 116.438L71.8693 116.882C71.5953 116.886 71.321 116.888 71.0462 116.888ZM74.5374 116.785L74.5114 116.341C75.3886 116.289 76.277 116.216 77.152 116.124L77.1983 116.566C76.3166 116.659 75.4215 116.732 74.5374 116.785ZM66.5339 116.715C65.6493 116.647 64.7555 116.558 63.877 116.45L63.9312 116.009C64.8029 116.116 65.6898 116.205 66.5677 116.272L66.5339 116.715ZM79.8463 116.227L79.7798 115.787C80.6514 115.655 81.5296 115.501 82.3895 115.33L82.4759 115.765C81.6093 115.938 80.7246 116.093 79.8463 116.227ZM61.2354 116.064C60.3616 115.916 59.4796 115.745 58.6139 115.557L58.708 115.122C59.5671 115.309 60.4423 115.479 61.3095 115.626L61.2354 116.064ZM85.0821 115.184L84.9755 114.752C85.8311 114.54 86.6914 114.306 87.5326 114.056L87.6586 114.482C86.8109 114.734 85.9441 114.97 85.0821 115.184ZM56.0186 114.929C55.1615 114.7 54.2989 114.449 53.4549 114.182L53.5885 113.758C54.4261 114.023 55.2821 114.273 56.1325 114.499L56.0186 114.929ZM90.2001 113.662L90.0545 113.242C90.8847 112.953 91.7197 112.64 92.5366 112.313L92.7012 112.725C91.8782 113.055 91.0367 113.371 90.2001 113.662ZM50.9217 113.314C50.0892 113.007 49.2515 112.676 48.4322 112.33L48.6043 111.921C49.4174 112.264 50.2486 112.592 51.0747 112.897L50.9217 113.314ZM95.1511 111.677L94.9675 111.272C95.7647 110.909 96.5661 110.521 97.3493 110.12L97.5511 110.516C96.7619 110.92 95.9544 111.311 95.1511 111.677ZM99.8957 109.246L99.6762 108.86C100.441 108.423 101.204 107.963 101.944 107.494L102.181 107.869C101.435 108.342 100.666 108.805 99.8957 109.246ZM104.402 106.389L104.148 106.024C104.868 105.52 105.587 104.992 106.284 104.455L106.554 104.808C105.852 105.349 105.128 105.881 104.402 106.389ZM36.8131 105.763C36.0974 105.242 35.3824 104.696 34.6879 104.14L34.9646 103.793C35.6538 104.344 36.3634 104.886 37.0736 105.403L36.8131 105.763ZM108.632 103.13L108.346 102.791C109.017 102.223 109.685 101.632 110.331 101.033L110.632 101.359C109.981 101.963 109.308 102.559 108.632 103.13ZM32.639 102.423C31.9724 101.837 31.3102 101.229 30.6707 100.614L30.9778 100.293C31.6124 100.904 32.2696 101.508 32.9311 102.088L32.639 102.423ZM112.551 99.4979L112.235 99.1858C112.853 98.5575 113.465 97.9074 114.053 97.2535L114.383 97.5508C113.79 98.2099 113.174 98.8648 112.551 99.4979ZM28.7871 98.7175C28.1755 98.073 27.5715 97.4067 26.9919 96.7375L27.3268 96.4462C27.9021 97.1105 28.5014 97.7715 29.1085 98.4111L28.7871 98.7175ZM116.125 95.522L115.782 95.2399C116.341 94.5582 116.891 93.8549 117.418 93.149L117.773 93.415C117.243 94.1264 116.688 94.8354 116.125 95.522ZM25.2887 94.6783C24.7395 93.9827 24.1987 93.2646 23.6813 92.544L24.0412 92.2844C24.5547 92.9995 25.0913 93.7121 25.6365 94.4026L25.2887 94.6783ZM119.324 91.2345L118.957 90.9849C119.452 90.2551 119.936 89.504 120.397 88.7521L120.775 88.9847C120.31 89.7423 119.822 90.4993 119.324 91.2345ZM22.1731 90.3391C21.6899 89.5967 21.217 88.8328 20.7674 88.0681L21.1494 87.8424C21.5956 88.6013 22.065 89.3595 22.5445 90.096L22.1731 90.3391ZM122.121 86.6701L121.733 86.4552C122.159 85.6831 122.573 84.8902 122.963 84.0983L123.361 84.2953C122.967 85.0931 122.55 85.8921 122.121 86.6701H122.121ZM124.49 81.8654L124.083 81.6871C124.437 80.8783 124.776 80.0499 125.092 79.2253L125.506 79.3846C125.188 80.2157 124.846 81.0504 124.49 81.8654H124.49ZM17.1941 80.9065C16.8541 80.0888 16.5285 79.2522 16.2265 78.4197L16.6433 78.2678C16.943 79.094 17.2661 79.9241 17.6033 80.7355L17.1941 80.9065ZM126.407 76.8586L125.986 76.7188C126.263 75.8831 126.524 75.0289 126.762 74.1798L127.189 74.3C126.949 75.1557 126.686 76.0165 126.407 76.8586ZM15.3723 75.8846C15.1084 75.0376 14.8605 74.1724 14.6354 73.3126L15.0644 73.1997C15.2877 74.053 15.5338 74.9117 15.7956 75.7522L15.3723 75.8846ZM127.853 71.708L127.421 71.6073C127.619 70.7508 127.801 69.876 127.96 69.0077L128.396 69.088C128.236 69.9632 128.053 70.8445 127.853 71.708ZM14.0179 70.7093C13.8329 69.8413 13.6656 68.9569 13.5205 68.0804L13.9579 68.0075C14.102 68.8775 14.2681 69.7551 14.4516 70.6164L14.0179 70.7093ZM128.819 66.4463L128.379 66.386C128.499 65.5156 128.599 64.628 128.679 63.7478L129.121 63.7877C129.04 64.6749 128.939 65.5692 128.819 66.4463ZM13.1439 65.4316C13.0393 64.5518 12.9535 63.6558 12.8886 62.7684L13.331 62.7359C13.3952 63.6167 13.4805 64.5058 13.5844 65.3791L13.1439 65.4316ZM129.301 61.1185L128.858 61.0985C128.897 60.2179 128.918 59.3247 128.918 58.4438H129.361C129.361 59.3314 129.341 60.2313 129.301 61.1185ZM12.7543 60.0959C12.7391 59.551 12.7314 58.995 12.7313 58.4438C12.7313 58.1018 12.7342 57.7605 12.7401 57.4197L13.1836 57.4276C13.1777 57.7657 13.1748 58.1044 13.1748 58.4438C13.1749 58.9909 13.1826 59.5428 13.1975 60.0838L12.7543 60.0959ZM13.2888 54.7743L12.8462 54.7465C12.9015 53.8585 12.978 52.9616 13.0731 52.0806L13.514 52.1285C13.4195 53.0028 13.3438 53.8929 13.2888 54.7743H13.2888ZM128.631 52.0628C128.543 51.1866 128.421 50.7594 128.292 49.8871L128.731 49.8222C128.86 50.7012 128.972 51.3722 129.061 52.255L128.631 52.0628ZM13.8592 49.4959L13.421 49.428C13.5569 48.5487 13.7147 47.6626 13.8902 46.7938L14.3248 46.8819C14.1507 47.7441 13.994 48.6235 13.8592 49.4959H13.8592ZM127.845 47.2702C127.676 46.4033 127.485 45.5305 127.277 44.6764L127.708 44.5714C127.917 45.432 128.11 46.3115 128.28 47.1849L127.845 47.2702ZM14.9097 44.2922L14.4795 44.1841C14.6948 43.3233 14.9334 42.4554 15.1884 41.6043L15.613 41.7321C15.36 42.5767 15.1234 43.438 14.9097 44.2922ZM126.591 42.1114C126.344 41.2652 126.074 40.414 125.788 39.5811L126.208 39.4365C126.495 40.2758 126.768 41.1338 127.017 41.9864L126.591 42.1114ZM16.4362 39.2003L16.0179 39.053C16.3126 38.2128 16.6308 37.3686 16.9636 36.5439L17.3748 36.7105C17.0444 37.5289 16.7286 38.3667 16.4362 39.2003ZM124.869 37.0904C124.546 36.2725 124.199 35.4517 123.84 34.6506L124.244 34.468C124.607 35.2753 124.956 36.1025 125.282 36.9266L124.869 37.0904ZM18.4266 34.2676L18.0236 34.0821C18.394 33.2737 18.7882 32.4631 19.1953 31.6727L19.5894 31.8765C19.1853 32.6609 18.7941 33.4653 18.4266 34.2676ZM122.699 32.2597C122.302 31.4751 121.882 30.6889 121.449 29.9232L121.835 29.7042C122.271 30.4759 122.694 31.2681 123.094 32.0588L122.699 32.2597ZM20.8605 29.5421L20.4762 29.3203C20.9185 28.5505 21.3851 27.7799 21.8628 27.0301L22.2366 27.2692C21.7625 28.0134 21.2994 28.7781 20.8605 29.5421ZM120.094 27.6454C119.625 26.8978 119.134 26.153 118.635 25.4317L119 25.1784C119.503 25.9053 119.997 26.6557 120.469 27.4091L120.094 27.6454ZM23.7148 25.0624L23.3524 24.8064C23.8636 24.0797 24.3981 23.3554 24.9414 22.6536L25.2917 22.926C24.7527 23.6226 24.2221 24.3413 23.7148 25.0624ZM117.077 23.2864C116.543 22.5849 115.986 21.8876 115.423 21.2137L115.763 20.9283C116.33 21.6073 116.891 22.3099 117.43 23.0167L117.077 23.2864ZM26.9639 20.8645L26.6263 20.5763C27.2001 19.9009 27.798 19.2287 28.4035 18.5784L28.7277 18.8815C28.1268 19.527 27.5334 20.1942 26.9639 20.8645ZM113.676 19.2182C113.08 18.5684 112.462 17.9243 111.839 17.3041L112.152 16.9887C112.779 17.6138 113.402 18.2627 114.002 18.9174L113.676 19.2182ZM30.5792 16.9818L30.2691 16.6641C30.9032 16.0424 31.5594 15.4277 32.2193 14.8372L32.5146 15.1688C31.8597 15.7547 31.2085 16.3647 30.5792 16.9818V16.9818ZM109.918 15.4752C109.265 14.8818 108.591 14.2965 107.915 13.7356L108.197 13.3932C108.879 13.9583 109.558 14.548 110.216 15.146L109.918 15.4752ZM34.53 13.4459L34.25 13.1013C34.9359 12.5415 35.6447 11.9894 36.3569 11.4604L36.6211 11.8174C35.9142 12.3425 35.2107 12.8904 34.53 13.4459H34.53ZM38.7833 10.2866L38.5357 9.91786C39.2698 9.42285 40.0255 8.93815 40.782 8.47689L41.0123 8.85667C40.2617 9.31434 39.5118 9.79546 38.7833 10.2866H38.7833ZM43.3038 7.53073L43.091 7.14076C43.8675 6.71487 44.6638 6.30168 45.4577 5.91247L45.6525 6.31177C44.8648 6.69794 44.0746 7.10799 43.3038 7.53073ZM96.8227 6.50101C96.0337 6.10702 95.2253 5.72638 94.4203 5.36972L94.5996 4.96326C95.4109 5.32263 96.2255 5.7062 97.0206 6.10322L96.8227 6.50101ZM48.0537 5.2023L47.8774 4.79453C48.689 4.442 49.5192 4.10389 50.3448 3.78955L50.5022 4.20513C49.6829 4.51698 48.8591 4.85248 48.0537 5.2023ZM91.9676 4.3502C91.1465 4.0311 90.3062 3.72662 89.4697 3.44537L89.6109 3.02394C90.4536 3.30746 91.3005 3.61421 92.1278 3.93593L91.9676 4.3502ZM53.0002 3.31983L52.862 2.89753C53.7048 2.62062 54.5646 2.35988 55.4175 2.12279L55.5361 2.55096C54.6896 2.78631 53.8364 3.04499 53.0002 3.31983H53.0002ZM86.9389 2.65903C86.0931 2.41739 85.2304 2.19235 84.3749 1.9902L84.4767 1.5577C85.3389 1.76136 86.2081 1.98814 87.0606 2.23152L86.9389 2.65903ZM58.1048 1.90003L58.0061 1.46677C58.87 1.26896 59.7501 1.08873 60.6218 0.931185L60.7006 1.36846C59.8354 1.52493 58.9622 1.70375 58.1048 1.90003ZM81.7828 1.44073C80.9192 1.27829 80.0397 1.13377 79.1684 1.01115L79.2299 0.571052C80.1079 0.694642 80.9944 0.840257 81.8646 1.00388L81.7828 1.44073ZM63.3182 0.957118L63.2595 0.516584C64.1373 0.399181 65.0301 0.300441 65.9129 0.223402L65.9514 0.666105C65.0753 0.742709 64.1895 0.840572 63.3182 0.957118ZM76.5368 0.702129C75.6633 0.619663 74.7743 0.556079 73.8941 0.513438L73.9157 0.0694318C74.8024 0.112509 75.6982 0.176527 76.5784 0.259653L76.5368 0.702129ZM68.5957 0.495643L68.5771 0.0516471C69.3921 0.0175763 70.2227 0.000217776 71.0462 0L71.2469 0.000323822L71.2456 0.444764L71.0462 0.44444C70.229 0.444646 69.4045 0.461896 68.5957 0.495643Z" fill="#3F3D56"/>
<path d="M200 144.952H37.4723V145.396H200V144.952Z" fill="#3F3D56"/>
<path d="M132.597 70.2271L134.814 104.671C134.814 104.671 140.135 118.227 139.914 131.115C139.914 131.115 137.918 136.226 139.47 137.115C141.022 138.004 141.909 138.671 141.022 139.338C140.135 140.004 139.47 141.56 140.135 142.004C140.801 142.449 141.022 143.115 140.801 143.115H134.149C134.149 143.115 135.479 139.782 133.484 138.893C131.488 138.004 132.597 135.782 132.597 135.782L117.741 92.2269L105.989 132.226C105.989 132.226 107.985 133.56 106.433 134.226C104.88 134.893 104.215 133.56 104.88 134.893C105.546 136.226 104.659 136.893 104.659 137.115C104.659 137.338 98.0068 136.449 98.0068 136.449C98.0068 136.449 101.333 133.56 99.7806 132.893C98.2285 132.226 97.5633 131.56 98.0068 131.115C98.4502 130.671 100.224 126.449 100.224 126.449C100.224 126.449 101.111 110.449 101.333 109.782C101.554 109.116 101.333 106.005 101.333 104.449C101.333 102.893 101.111 96.6713 101.776 95.1157C102.441 93.5602 103.107 74.4493 106.654 72.2271C110.202 70.0049 132.597 70.2271 132.597 70.2271Z" fill="#2F2E41"/>
<path d="M104.437 136.004C104.437 136.004 108.871 145.115 105.767 146.226C102.663 147.337 98.6719 146.449 97.785 147.782C96.8981 149.115 87.142 150.671 86.9202 147.337C86.6985 144.004 97.5633 137.782 97.5633 137.782L98.9786 135.498L104.437 136.004Z" fill="#2F2E41"/>
<path d="M140.357 142.671C140.357 142.671 144.792 151.782 141.687 152.893C138.583 154.004 134.592 153.115 133.705 154.448C132.818 155.782 123.062 157.337 122.84 154.004C122.619 150.671 133.483 144.449 133.483 144.449L134.899 142.165L140.357 142.671Z" fill="#2F2E41"/>
<path d="M119.847 28.3386C123.888 28.3386 127.164 25.0554 127.164 21.0054C127.164 16.9553 123.888 13.6721 119.847 13.6721C115.806 13.6721 112.53 16.9553 112.53 21.0054C112.53 25.0554 115.806 28.3386 119.847 28.3386Z" fill="#A0616A"/>
<path d="M124.836 24.8942L123.949 31.3385L117.297 36.4496L115.524 34.0052V25.5608L124.836 24.8942Z" fill="#A0616A"/>
<path d="M114.415 33.1164C114.415 33.1164 121.288 33.783 124.836 31.3386L131.932 73.3382C131.932 73.3382 106.876 75.3382 105.767 74.0048V60.8939L110.202 39.5608L114.415 33.1164Z" fill="#3F3D56"/>
<path d="M124.225 29.3306L126.61 31.3386C126.61 31.3386 136.366 32.8941 135.701 35.5608L133.04 67.116L133.927 77.7825C133.927 77.7825 126.388 75.7826 120.623 77.7825C114.858 79.7825 119.438 34.8045 119.438 34.8045C119.438 34.8045 124.724 29.9892 124.225 29.3306Z" fill="#D0CDE1"/>
<path d="M115.524 31.7629C115.524 31.7629 108.428 36.8941 107.541 40.2274C106.654 43.5607 103.772 78.6714 103.772 78.6714C103.772 78.6714 105.102 78.0048 105.767 79.1159C106.433 80.227 116.632 33.5206 115.524 31.7629Z" fill="#D0CDE1"/>
<path d="M112.534 20.6859C112.534 20.6859 111.741 19.4951 112.046 18.2127C112.228 17.4846 112.3 16.7332 112.259 15.9837C112.259 15.9837 112.899 13.9075 113.539 12.7472C114.179 11.5869 113.874 11.0984 115.885 10.732C117.896 10.3656 117.073 7.73971 122.374 10.5793C122.553 10.8296 122.802 11.0211 123.089 11.1298C123.377 11.2385 123.69 11.2594 123.989 11.19C125.086 10.9763 125.482 12.5029 125.482 12.5029C125.482 12.5029 126.213 12.0755 126.487 12.6861C126.761 13.2968 128.716 12.3196 128.716 16.4416C128.716 20.5637 126.492 24.2457 126.492 24.2457C126.492 24.2457 126.655 17.312 123.029 16.6097C119.404 15.9074 115.504 13.8617 114.56 16.4875C114.05 17.9613 113.37 19.3703 112.534 20.6859Z" fill="#2F2E41"/>
<path d="M126.571 22.3344C126.966 22.3344 127.286 21.9066 127.286 21.3788C127.286 20.8511 126.966 20.4232 126.571 20.4232C126.176 20.4232 125.856 20.8511 125.856 21.3788C125.856 21.9066 126.176 22.3344 126.571 22.3344Z" fill="#A0616A"/>
<path d="M96.5191 90.0991C94.7646 89.0417 92.6491 89.1224 91.8448 89.2032C92.1511 89.9526 93.0701 91.864 94.8246 92.922C96.5834 93.9821 98.6961 93.8989 99.4991 93.8187C99.193 93.0695 98.2739 91.1573 96.5191 90.0991Z" fill="#D0CDE1"/>
<path d="M104.764 111.082H93.7978C93.1434 111.082 92.5159 111.342 92.0532 111.806C91.5904 112.27 91.3305 112.899 91.3305 113.555C91.3305 114.21 91.5904 114.839 92.0532 115.303C92.5159 115.767 93.1434 116.027 93.7978 116.027H104.764C105.418 116.027 106.045 115.766 106.507 115.302C106.969 114.839 107.229 114.21 107.229 113.555C107.229 112.899 106.969 112.271 106.507 111.807C106.045 111.343 105.418 111.082 104.764 111.082Z" fill="#D0CDE1"/>
<path d="M154.421 84.9803H92.9386C92.2234 84.9803 91.5152 85.1215 90.8545 85.3958C90.1937 85.6701 89.5933 86.0722 89.0876 86.579C88.5818 87.0859 88.1807 87.6876 87.907 88.3498C87.6333 89.0121 87.4924 89.7218 87.4924 90.4386V120.46C87.4924 121.908 88.0662 123.296 89.0876 124.32C90.1089 125.343 91.4942 125.918 92.9386 125.918H154.421C155.136 125.918 155.844 125.777 156.505 125.503C157.166 125.229 157.766 124.827 158.272 124.32C158.778 123.813 159.179 123.211 159.452 122.549C159.726 121.887 159.867 121.177 159.867 120.46V90.4386C159.867 89.7218 159.726 89.0121 159.452 88.3498C159.179 87.6876 158.778 87.0859 158.272 86.579C157.766 86.0722 157.166 85.6701 156.505 85.3958C155.844 85.1215 155.136 84.9803 154.421 84.9803ZM91.4175 88.7037C91.5389 88.6817 94.4178 88.1907 96.8017 89.6283C99.1855 91.0657 100.101 93.8451 100.139 93.9627L100.236 94.2624L99.9262 94.3174C99.4848 94.3864 99.0386 94.4193 98.592 94.4156C97.5093 94.4156 95.9405 94.2361 94.5417 93.3925C92.158 91.9554 91.2422 89.176 91.2045 89.0584L91.1081 88.7587L91.4175 88.7037ZM104.764 116.577H93.7978C92.998 116.577 92.231 116.258 91.6654 115.692C91.0999 115.125 90.7822 114.356 90.7822 113.555C90.7822 112.753 91.0999 111.984 91.6654 111.418C92.231 110.851 92.998 110.532 93.7978 110.532H104.764C105.563 110.532 106.33 110.851 106.896 111.418C107.462 111.984 107.779 112.753 107.779 113.555C107.779 114.356 107.462 115.125 106.896 115.692C106.33 116.258 105.563 116.577 104.764 116.577ZM154.658 116.027C154.656 116.901 154.308 117.738 153.692 118.356C153.075 118.974 152.24 119.322 151.368 119.324H143.144C142.272 119.322 141.437 118.974 140.821 118.356C140.204 117.738 139.857 116.901 139.854 116.027V111.082C139.857 110.208 140.204 109.371 140.821 108.753C141.437 108.136 142.272 107.787 143.144 107.785H151.368C152.24 107.787 153.075 108.136 153.692 108.753C154.308 109.371 154.656 110.208 154.658 111.082L154.658 116.027Z" fill="#D0CDE1"/>
<path d="M145.749 115.066H142.185C141.93 115.066 141.686 115.167 141.506 115.347C141.326 115.528 141.225 115.772 141.225 116.027C141.225 116.282 141.326 116.527 141.506 116.707C141.686 116.888 141.93 116.989 142.185 116.989H145.749C146.003 116.989 146.247 116.888 146.427 116.707C146.607 116.527 146.708 116.282 146.708 116.027C146.708 115.772 146.607 115.528 146.427 115.347C146.247 115.167 146.003 115.066 145.749 115.066ZM145.749 116.44H142.185C142.131 116.44 142.077 116.429 142.027 116.408C141.977 116.388 141.932 116.357 141.893 116.319C141.855 116.281 141.825 116.235 141.804 116.185C141.783 116.135 141.773 116.082 141.773 116.027C141.773 115.973 141.783 115.92 141.804 115.869C141.825 115.819 141.855 115.774 141.893 115.736C141.932 115.697 141.977 115.667 142.027 115.646C142.077 115.626 142.131 115.615 142.185 115.615H145.749C145.803 115.615 145.856 115.626 145.906 115.646C145.956 115.667 146.002 115.697 146.04 115.736C146.078 115.774 146.109 115.819 146.129 115.869C146.15 115.92 146.161 115.973 146.161 116.027C146.161 116.082 146.15 116.135 146.129 116.185C146.109 116.235 146.078 116.281 146.04 116.319C146.002 116.357 145.956 116.388 145.906 116.408C145.856 116.429 145.803 116.44 145.749 116.44Z" fill="#D0CDE1"/>
<path d="M152.328 115.066H148.764C148.638 115.066 148.513 115.09 148.397 115.139C148.28 115.187 148.174 115.258 148.085 115.347C147.996 115.436 147.925 115.542 147.876 115.659C147.828 115.776 147.803 115.901 147.803 116.027C147.803 116.154 147.828 116.279 147.876 116.396C147.925 116.513 147.996 116.619 148.085 116.708C148.174 116.797 148.28 116.868 148.397 116.916C148.513 116.965 148.638 116.989 148.764 116.989H152.328C152.583 116.989 152.827 116.888 153.007 116.707C153.187 116.527 153.288 116.282 153.288 116.027C153.288 115.772 153.187 115.528 153.007 115.347C152.827 115.167 152.583 115.066 152.328 115.066ZM152.328 116.44H148.764C148.71 116.44 148.657 116.429 148.607 116.408C148.557 116.388 148.511 116.357 148.473 116.319C148.435 116.281 148.404 116.235 148.383 116.185C148.363 116.135 148.352 116.082 148.352 116.027C148.352 115.973 148.363 115.92 148.383 115.87C148.404 115.819 148.435 115.774 148.473 115.736C148.511 115.697 148.557 115.667 148.607 115.646C148.657 115.626 148.71 115.615 148.764 115.615H152.328C152.437 115.616 152.541 115.659 152.618 115.736C152.695 115.814 152.738 115.918 152.738 116.027C152.738 116.137 152.695 116.241 152.618 116.319C152.541 116.396 152.437 116.439 152.328 116.44Z" fill="#D0CDE1"/>
<path d="M145.749 112.593H142.185C141.93 112.593 141.686 112.694 141.506 112.875C141.326 113.055 141.225 113.3 141.225 113.555C141.225 113.81 141.326 114.054 141.506 114.235C141.686 114.415 141.93 114.516 142.185 114.516H145.749C145.875 114.516 146 114.492 146.116 114.444C146.233 114.395 146.339 114.324 146.428 114.235C146.517 114.146 146.588 114.04 146.636 113.923C146.685 113.806 146.71 113.681 146.71 113.555C146.71 113.428 146.685 113.303 146.636 113.186C146.588 113.07 146.517 112.963 146.428 112.874C146.339 112.785 146.233 112.714 146.116 112.666C146 112.618 145.875 112.593 145.749 112.593ZM145.749 113.967H142.185C142.076 113.967 141.971 113.923 141.894 113.846C141.817 113.769 141.774 113.664 141.774 113.555C141.774 113.445 141.817 113.341 141.894 113.263C141.971 113.186 142.076 113.143 142.185 113.143H145.749C145.858 113.143 145.962 113.186 146.039 113.263C146.117 113.341 146.16 113.445 146.16 113.555C146.16 113.664 146.117 113.769 146.039 113.846C145.962 113.923 145.858 113.967 145.749 113.967Z" fill="#D0CDE1"/>
<path d="M152.328 112.593H148.764C148.638 112.593 148.513 112.618 148.397 112.666C148.28 112.714 148.174 112.785 148.085 112.874C147.996 112.963 147.925 113.07 147.876 113.186C147.828 113.303 147.803 113.428 147.803 113.555C147.803 113.681 147.828 113.806 147.876 113.923C147.925 114.04 147.996 114.146 148.085 114.235C148.174 114.324 148.28 114.395 148.397 114.444C148.513 114.492 148.638 114.516 148.764 114.516H152.328C152.583 114.516 152.827 114.415 153.007 114.235C153.187 114.054 153.288 113.81 153.288 113.555C153.288 113.3 153.187 113.055 153.007 112.875C152.827 112.694 152.583 112.593 152.328 112.593ZM152.328 113.967H148.764C148.655 113.967 148.551 113.923 148.473 113.846C148.396 113.769 148.353 113.664 148.353 113.555C148.353 113.445 148.396 113.341 148.473 113.263C148.551 113.186 148.655 113.143 148.764 113.143H152.328C152.437 113.143 152.542 113.186 152.619 113.263C152.696 113.341 152.739 113.445 152.739 113.555C152.739 113.664 152.696 113.769 152.619 113.846C152.542 113.923 152.437 113.967 152.328 113.967Z" fill="#D0CDE1"/>
<path d="M145.749 110.12H142.185C141.93 110.12 141.686 110.222 141.506 110.402C141.326 110.582 141.225 110.827 141.225 111.082C141.225 111.337 141.326 111.582 141.506 111.762C141.686 111.942 141.93 112.044 142.185 112.044H145.749C146.003 112.044 146.247 111.942 146.427 111.762C146.607 111.582 146.708 111.337 146.708 111.082C146.708 110.827 146.607 110.582 146.427 110.402C146.247 110.222 146.003 110.12 145.749 110.12ZM145.749 111.494H142.185C142.076 111.494 141.971 111.451 141.894 111.373C141.817 111.296 141.774 111.191 141.774 111.082C141.774 110.973 141.817 110.868 141.894 110.79C141.971 110.713 142.076 110.67 142.185 110.67H145.749C145.858 110.67 145.962 110.713 146.039 110.79C146.117 110.868 146.16 110.973 146.16 111.082C146.16 111.191 146.117 111.296 146.039 111.373C145.962 111.451 145.858 111.494 145.749 111.494Z" fill="#D0CDE1"/>
<path d="M152.328 110.12H148.764C148.638 110.12 148.513 110.145 148.397 110.193C148.28 110.241 148.174 110.312 148.085 110.401C147.996 110.491 147.925 110.597 147.876 110.714C147.828 110.83 147.803 110.955 147.803 111.082C147.803 111.208 147.828 111.333 147.876 111.45C147.925 111.567 147.996 111.673 148.085 111.762C148.174 111.852 148.28 111.922 148.397 111.971C148.513 112.019 148.638 112.044 148.764 112.044H152.328C152.582 112.043 152.826 111.942 153.006 111.761C153.185 111.581 153.286 111.337 153.286 111.082C153.286 110.827 153.185 110.583 153.006 110.402C152.826 110.222 152.582 110.121 152.328 110.12ZM152.328 111.494H148.764C148.655 111.494 148.551 111.451 148.473 111.373C148.396 111.296 148.353 111.191 148.353 111.082C148.353 110.973 148.396 110.868 148.473 110.79C148.551 110.713 148.655 110.67 148.764 110.67H152.328C152.437 110.67 152.542 110.713 152.619 110.79C152.696 110.868 152.739 110.973 152.739 111.082C152.739 111.191 152.696 111.296 152.619 111.373C152.542 111.451 152.437 111.494 152.328 111.494Z" fill="#D0CDE1"/>
<path d="M135.036 78.227L133.446 83.4251C133.446 83.4251 133.04 93.1158 127.719 91.7825C122.397 90.4491 129.271 79.1159 129.271 79.1159L130.823 76.6715L135.036 78.227Z" fill="#A0616A"/>
<path d="M104.88 78.227L103.291 83.4251C103.291 83.4251 102.885 93.1158 97.5633 91.7825C92.2418 90.4491 99.1154 79.1159 99.1154 79.1159L100.668 76.6715L104.88 78.227Z" fill="#A0616A"/>
<path d="M133.927 34.0053C133.927 34.0053 137.475 33.1164 138.583 39.1164C139.692 45.1163 141.022 62.2272 141.022 62.2272L135.701 80.227C135.701 80.227 130.379 77.3382 129.271 77.7826L133.458 62.1559L129.936 46.2274C129.936 46.2274 133.04 34.0053 133.927 34.0053Z" fill="#D0CDE1"/>
<path opacity="0.15" d="M128.769 46.5312L133.425 62.0866L128.769 77.8643L131.43 62.0866L128.769 46.5312Z" fill="black"/>
<path d="M107.541 46.2273L99.559 77.7825C99.559 77.7825 103.77 79.1752 105.322 80.2863L107.541 46.2273Z" fill="#D0CDE1"/>
<path d="M23.8053 125.529C36.0511 125.529 45.9782 115.579 45.9782 103.306C45.9782 91.0336 36.0511 81.0845 23.8053 81.0845C11.5595 81.0845 1.63232 91.0336 1.63232 103.306C1.63232 115.579 11.5595 125.529 23.8053 125.529Z" fill="#3F3D56"/>
<path opacity="0.1" d="M23.8053 122.418C34.3367 122.418 42.8741 113.861 42.8741 103.307C42.8741 92.7519 34.3367 84.1957 23.8053 84.1957C13.2739 84.1957 4.73657 92.7519 4.73657 103.307C4.73657 113.861 13.2739 122.418 23.8053 122.418Z" fill="black"/>
<path d="M22.8916 114.584V111.802C21.4886 111.775 20.0372 111.279 19.1907 110.59L19.7712 108.745C20.7772 109.501 21.9973 109.916 23.2544 109.929C24.9719 109.929 26.133 108.8 26.133 107.23C26.133 105.716 25.1895 104.779 23.3996 103.953C20.9322 102.852 19.4083 101.585 19.4083 99.1888C19.4083 96.9029 20.8355 95.1679 23.061 94.7548V91.9733H24.5606V94.6447C25.6789 94.66 26.7697 94.9943 27.7053 95.6085L27.1005 97.4262C26.2032 96.8107 25.14 96.484 24.0527 96.4898C22.1902 96.4898 21.4886 97.7566 21.4886 98.8583C21.4886 100.29 22.3836 101.006 24.4881 101.998C26.9795 103.155 28.2375 104.587 28.2375 107.038C28.2375 109.213 26.907 111.251 24.4155 111.719V114.584H22.8916Z" fill="white"/>
<path d="M47.2284 148.508C31.5722 150.848 15.6562 150.848 0 148.508V143.175C15.6728 145.278 31.5556 145.278 47.2284 143.175V148.508Z" fill="#3F3D56"/>
<path d="M47.2284 140.286C31.5722 142.626 15.6562 142.626 0 140.286V134.952C15.6728 137.056 31.5556 137.056 47.2284 134.952V140.286Z" fill="#3F3D56"/>
<path d="M47.2284 132.064C31.5722 134.404 15.6562 134.404 0 132.064V126.73C15.6728 128.834 31.5556 128.834 47.2284 126.73V132.064Z" fill="#3F3D56"/>
</g>
<defs>
<clipPath id="clip0_14_216">
<rect width="200" height="156" fill="white"/>
</clipPath>
</defs>
</svg>
